<?xml version="1.0" encoding="UTF-8"?><svg xmlns="http://www.w3.org/2000/svg" xmlns:xlink="http://www.w3.org/1999/xlink" viewBox="0 0 1920 1080.1"><defs><style>.cls-1{isolation:isolate;}.cls-2{fill:#fcb814;}.cls-2,.cls-3,.cls-4,.cls-5,.cls-6,.cls-7{stroke-width:0px;}.cls-3{fill:#fff;}.cls-4{fill:url(#linear-gradient);}.cls-4,.cls-7{mix-blend-mode:overlay;}.cls-5{fill:#ef5f3c;}.cls-6{fill:#340c39;}.cls-7{fill:url(#linear-gradient-2);}</style><linearGradient id="linear-gradient" x1="1443.95" y1="676.49" x2="1920" y2="676.49" gradientTransform="translate(0 1136.2) scale(1 -1)" gradientUnits="userSpaceOnUse"><stop offset="0" stop-color="#231f20"/><stop offset=".33" stop-color="#434041" stop-opacity=".85"/><stop offset=".72" stop-color="#9f9e9e" stop-opacity=".43"/><stop offset="1" stop-color="#fff" stop-opacity="0"/></linearGradient><linearGradient id="linear-gradient-2" x1="170.11" y1="56.1" x2="170.11" y2="937.77" gradientTransform="translate(0 1136.2) scale(1 -1)" gradientUnits="userSpaceOnUse"><stop offset="0" stop-color="#231f20"/><stop offset=".33" stop-color="#434041" stop-opacity=".85"/><stop offset=".72" stop-color="#9f9e9e" stop-opacity=".43"/><stop offset="1" stop-color="#fff" stop-opacity="0"/></linearGradient></defs><g class="cls-1"><g id="Layer_1"><g id="Layer_1-2"><rect class="cls-6" y=".4" width="1920" height="1079.7"/><path class="cls-2" d="m1920,251.1v160c-57.7,16.7-114.6,52.4-88.6,128.7,2.6,7.5,4.8,15.2,6.5,23,17.5,81.2-45.5,86.2-82.6,82.6-2.3-.2-4.5-.5-6.6-.8-1.1-.1-2.1-.3-3.1-.4l-1.6-.2-3.2-.5c-2.3-.4-4.3-.8-5.9-1.1l-.8-.2-1.4-.3-.5-.1c-1.4-.3-2.2-.5-2.2-.5,0,0-.5-.2-1.6-.6h-.1c-1.4-.5-3.7-1.4-6.8-2.3l-1-.3c-.8-.2-1.6-.5-2.5-.7l-.6-.2-1.1-.3-1.4-.4c-3.7-.9-8-1.9-12.6-2.7l-1.2-.2h-.3l-1-.2c-2.9-.4-6-.8-9.2-1-.7-.1-1.3-.1-2-.2l-1.9-.1-1.6-.1h-1.3c-4.2-.1-8.5,0-12.7.2-1.1.1-2.3.2-3.4.3-1.9.2-3.7.4-5.6.7-.6.1-1.2.2-1.8.3l-2.6.5-1.1.2c-1.3.3-2.7.6-4,.9l-1.6.4c-1.2.3-2.4.7-3.6,1l-.3.1-1.6.5c-.6.2-1.2.4-1.9.6s-1.2.4-1.8.6l-.3.1c-.5.2-.9.3-1.4.5s-1,.4-1.5.6-1.1.5-1.6.7c-.1,0-.2.1-.3.1l-1.5.7-.3.1-1.2.6-.7.3-1.5.8-1.2.7c-.3.2-.7.4-1,.6s-.5.2-.7.4c-.4.2-.8.5-1.3.7l-.3.2-1.2.7c-.5.3-1,.6-1.5.9s-1.1.7-1.6,1.1l-.2.1c-28.9,19.5-62.7,25.3-89.1,13.9-.6-.2-1.1-.5-1.7-.7l-1.8-.8c-1.1-.5-2.3-1.1-3.4-1.7-.4-.2-.8-.4-1.1-.6-.7-.4-1.5-.8-2.2-1.2s-1.5-.9-2.2-1.3c-2.9-1.8-5.7-3.7-8.4-5.8-.4-.3-.8-.6-1.2-.9s-1-.8-1.6-1.2-1.3-1-1.9-1.6c-1.2-1-2.3-2-3.5-3.1l-1.2-1.1c-1.9-1.8-3.8-3.8-5.7-5.8-.4-.4-.8-.8-1.2-1.2-2.6-2.8-5.1-5.8-7.7-9.1l-1-1.2c-4-5.1-8.1-10.8-12.2-17.2-.4-.6-.8-1.2-1.1-1.7-2.1-3.3-4.3-6.8-6.5-10.5-.4-.7-.8-1.4-1.3-2.1-1.3-2.1-2.5-4.3-3.8-6.5-44-76.1-4.1-74.4,56.9-73.8s104.3-74.6,73-160.2,65.4-105.4,187.7-83.7c68.9,12.4,113.7-2.6,139.7-18Z"/><path class="cls-4" d="m1920,251.1v160c-57.7,16.7-114.6,52.4-88.6,128.7,2.6,7.5,4.8,15.2,6.5,23,17.5,81.2-45.5,86.2-82.6,82.6-2.3-.2-4.5-.5-6.6-.8-1.1-.1-2.1-.3-3.1-.4l-1.6-.2c-1.1-.2-2.2-.3-3.2-.5-2.3-.4-4.3-.8-5.9-1.1l-.8-.2-1.4-.3-.5-.1c-1.3-.3-2.6-.7-3.8-1.2h-.1c-1.4-.5-3.7-1.4-6.8-2.3l-1-.3c-.8-.2-1.6-.5-2.5-.7l-.6-.2-1.1-.3c-.5-.1-.9-.3-1.4-.4-3.7-.9-8-1.9-12.6-2.7l-1.2-.2h-.3l-1-.2c-2.9-.4-6-.8-9.2-1-.7-.1-1.3-.1-2-.2l-1.9-.1-1.6-.1h-1.3c-4.2-.1-8.5,0-12.7.2-1.1.1-2.3.2-3.4.3-1.9.2-3.7.4-5.6.7-.6.1-1.2.2-1.8.3l-2.6.5-1.1.2c-1.3.3-2.7.6-4,.9l-1.6.4c-1.2.3-2.4.7-3.6,1l-.3.1-1.6.5c-.6.2-1.2.4-1.9.6l-1.8.6-.3.1c-.5.2-.9.4-1.4.5-.5.2-1,.4-1.5.6s-1.1.5-1.6.7c-.1,0-.2.1-.3.1l-1.5.7-.3.1-1.2.6-.7.3c-.5.2-1,.5-1.5.8l-1.2.7c-.3.2-.7.4-1,.6s-.5.2-.7.4c-.4.2-.8.5-1.3.7l-.3.2-1.2.7c-.5.3-1,.6-1.5.9s-1.1.7-1.6,1.1l-.2.1-.8.5c-26.4,18.2-57.3,24.7-82.5,15.7-2-.7-3.9-1.5-5.9-2.3-.6-.2-1.1-.5-1.7-.7l-1.8-.8c-1.1-.5-2.3-1.1-3.4-1.7-.4-.2-.8-.4-1.1-.6-.7-.4-1.5-.8-2.2-1.2s-1.5-.9-2.2-1.3c-2.9-1.8-5.7-3.7-8.4-5.8-.4-.3-.8-.6-1.2-.9s-1-.8-1.6-1.2-1.3-1-1.9-1.6c-1.2-1-2.3-2-3.5-3.1l-1.2-1.1c-1.9-1.8-3.8-3.8-5.7-5.8-.4-.4-.8-.8-1.2-1.2-2.6-2.8-5.1-5.8-7.7-9.1l-1-1.2c-4-5.1-8.1-10.8-12.2-17.2-.4-.6-.8-1.2-1.1-1.7-2.1-3.3-4.3-6.8-6.5-10.5-.4-.7-.8-1.4-1.3-2.1-1.3-2.1-2.5-4.3-3.8-6.5-44-76.1-4.1-74.4,56.9-73.8s104.3-74.6,73-160.2,65.4-105.4,187.7-83.7c69,12.5,113.8-2.5,139.8-17.9Z"/><path class="cls-5" d="m340,394.3c-2.7,60.4-30.7,122.9-89.2,167.9-14.9,11.4-28.2,24.6-39.6,39.5-.4.5-.8,1-1.2,1.6-102.3,136-13.9,364.1,24.8,448.4l.4.8c6,13,10.8,22.5,13.4,27.6H0V261.2c12.6-8.8,25-16.6,37.1-23.4l.5-.3c6.4-3.6,12.7-6.9,18.9-10h0c13.4-6.6,27.2-12.3,41.4-17,152.4-49.8,247.6,63,242.1,183.8Z"/><path class="cls-7" d="m340,394.3c-2.7,60.4-30.7,122.9-89.2,167.9-14.9,11.4-28.2,24.6-39.6,39.5-.4.5-.8,1-1.2,1.6-102.3,136-13.9,364.1,24.8,448.4l.4.8c6,13,10.8,22.5,13.4,27.6H0V261.2c12.6-8.8,25-16.6,37.1-23.4l.5-.3c6.4-3.6,12.7-6.9,18.9-10h0c13.4-6.6,27.2-12.3,41.4-17,152.4-49.8,247.6,63,242.1,183.8Z"/><path class="cls-3" d="m1692.2,1080.1h-2.1c-5.3-13.7-10.1-27.7-14.4-41.8-4.7-15.4-8.8-31-12.2-46.8-.9-3.9-1.7-7.9-2.5-11.8l-1.2-5.9c-.4-2-.7-4-1.1-6-.7-4-1.5-7.9-2.1-11.9l-1.9-12c-.3-2-.6-4-.9-6l-.8-6c-.1-1-.3-2-.4-3-.1-.6-.2-1.2-.2-1.9-.3-2.4-.6-4.7-.8-7.1l-1.3-12-1.1-12-.5-6-.4-6-.8-12.1-.6-12.1-.3-6-.2-6-.3-12.1-.1-12.1c-.1-8.1,0-16.1.1-24.2v-2c0-3.3.2-6.7.3-10l.4-12.1c.4-8,.7-16.1,1.2-24.2s1.1-16.1,1.6-24.1,1.1-16,1.2-24.1c.8-22.4.6-44.7-.7-67.1-.5-9.7-1.3-19.5-2.2-29.2-3.1-32-8.3-63.7-15.4-95.1-.8-3.9-1.8-7.8-2.8-11.7l-2.9-11.7-3.2-11.6-1.6-5.8-1.7-5.8-3.4-11.5c-1.2-3.8-2.5-7.6-3.7-11.5-2.4-7.7-5.1-15.2-7.8-22.8-.7-2.2-1.6-4.4-2.4-6.5-.6-1.6-1.2-3.2-1.8-4.8-1.4-3.8-2.8-7.5-4.3-11.3-3-7.5-5.9-15-9.1-22.3-6.2-14.8-13-29.4-20-43.9-14.2-28.8-29.7-57-46.7-84.4-33.7-55-72.7-106.5-115.3-154.7-16.5-18.6-33.5-36.6-51-54.2-5.2-5.2-10.5-10.4-15.8-15.5-7.6-7.2-15.2-14.4-23-21.4h.7c7.7,6.8,15.3,13.8,22.7,20.9,5.4,5.1,10.8,10.3,16.1,15.6,17.6,17.3,34.7,35.2,51.3,53.6,43.1,48,81.9,99.6,116.2,154.2,8.6,13.6,16.7,27.6,24.6,41.6l5.8,10.6c1.9,3.5,3.8,7.1,5.7,10.7,3.8,7.1,7.3,14.4,11,21.5,7,14.5,13.9,29.1,20.1,44,3.2,7.4,6.2,14.9,9.2,22.4,1.2,3,2.4,6.1,3.5,9.2l.8,2.1c1.4,3.8,2.9,7.5,4.2,11.3,2.7,7.6,5.4,15.2,7.8,22.9,1.2,3.8,2.5,7.6,3.7,11.5l3.5,11.6,1.7,5.8,1.6,5.8,3.2,11.7,2.9,11.7c1,3.9,2,7.8,2.8,11.8,7.2,31.5,12.4,63.3,15.6,95.4.9,9.6,1.6,19.1,2.1,28.7,1.3,22.6,1.5,45.3.6,68-.2,8.1-.8,16.1-1.3,24.2s-1.1,16-1.6,24.1-.8,16.1-1.2,24.1l-.4,12c-.1,3.9-.3,7.8-.3,11.8v.3c-.9,42.6,1.2,85.2,6.3,127.5l.2,1.8c2.7,20.9,6.2,41.7,10.6,62.3,3.3,15.7,7.4,31.3,12,46.7,4.4,14.6,9.2,28.7,14.5,42.7Z"/><path class="cls-3" d="m624.5.4c-1,1.1-1.9,2.3-2.9,3.3-12.3,13.9-25.7,26.9-40,38.8-14.3,11.8-29.5,22.7-45.3,32.5s-32.2,18.6-49.1,26.5l-6.3,2.9-3.2,1.5-3.2,1.4-12.9,5.4c-4.3,1.7-8.7,3.3-13,5l-6.5,2.4-6.6,2.2c-4.4,1.4-8.8,3-13.2,4.4l-13.4,3.9-3.3,1c-1.1.3-2.2.7-3.4.9l-6.8,1.7-13.5,3.5-13.6,3-6.8,1.5c-2.3.5-4.6.9-6.8,1.3-9.2,1.6-18.3,3.5-27.5,4.7l-27.5,4c-4.6.7-9.2,1.3-13.7,2.1l-13.7,2.5c-9.1,1.5-18.2,3.6-27.2,5.5-4.6.9-9,2.1-13.5,3.2l-13.5,3.3-13.4,3.7c-4.5,1.2-8.9,2.4-13.4,3.8-8.9,2.8-17.7,5.4-26.5,8.4-4.4,1.5-8.8,2.9-13.1,4.5l-13,4.8c-2.2.8-4.4,1.6-6.5,2.4l-6.4,2.6-12.9,5.2-12.8,5.5-2.1.9c-1.4.6-2.9,1.2-4.3,1.9l-6.3,2.9c-4.2,1.9-8.4,3.8-12.6,5.8l-12.5,6.1c-16.6,8.3-33,16.9-49,26.3-4.5,2.5-8.9,5.1-13.2,7.7v-2.1c4-2.5,8.1-4.9,12.2-7.3,8.2-4.9,16.5-9.6,24.9-14.1l.5-.3c6.3-3.4,12.6-6.7,18.9-10h0c1.5-.8,3.1-1.6,4.6-2.4,16.6-8.4,33.5-16.1,50.6-23.4l12.9-5.2,6.5-2.6c2.2-.9,4.4-1.6,6.5-2.5l13.1-4.9c4.4-1.6,8.8-3,13.2-4.6,8.8-3.1,17.7-5.8,26.5-8.5,4.4-1.4,8.9-2.6,13.4-3.9l13.4-3.7,13.5-3.3c4.5-1.1,9-2.3,13.6-3.2l13.7-2.9c4.5-1,9.1-1.8,13.7-2.6l13.7-2.4c4.6-.8,9.2-1.4,13.8-2.1l27.5-4c9.2-1.2,18.3-3,27.4-4.6,2.3-.4,4.6-.8,6.8-1.3l6.8-1.5,13.6-2.9,13.5-3.4,6.7-1.7c.7-.2,1.5-.4,2.2-.6,1.5-.4,3-.9,4.5-1.3l13.3-3.9c4.4-1.4,8.8-2.9,13.2-4.3l6.6-2.2,6.5-2.4c4.3-1.6,8.7-3.2,13-4.9l12.8-5.3,3.2-1.3,3.2-1.4,6.3-2.9c16.9-7.7,33.2-16.4,49-26,15.8-9.7,30.9-20.4,45.3-32,14.4-11.7,27.9-24.4,40.3-38.2l2.5-2.8h1Z"/><path class="cls-3" d="m737.3,1080.1h-3.7l-1.9-1.7c-5.2-4.7-10.4-9.5-15.5-14.3s-10.2-9.7-15.2-14.7-9.9-10-14.8-15-9.7-10.2-14.4-15.4c-9.5-10.4-18.7-21-27.6-31.9-17.9-21.8-34.2-44.8-49-68.8-1.6-2.7-3.2-5.4-4.8-8.1-.4-.7-.8-1.4-1.3-2.2-5.1-8.7-10-17.6-14.5-26.6-1.6-3.1-3.1-6.3-4.6-9.5-.8-1.6-1.5-3.2-2.3-4.8l-2.2-4.8c-2.9-6.5-5.8-12.8-8.7-19.2-6.2-12.5-13.1-24.7-20.8-36.4l-6-8.6c-2-2.8-4.2-5.6-6.3-8.4s-4.3-5.5-6.5-8.2l-3.3-4.1c-1.1-1.4-2.3-2.7-3.4-4-2.3-2.6-4.6-5.3-7-7.9l-7.2-7.6c-2.4-2.5-5-4.9-7.4-7.4l-.7-.7c-2.2-2.2-4.6-4.3-6.9-6.5-5.1-4.8-10.4-9.3-15.7-13.9l-8.1-6.6c-2.7-2.2-5.5-4.3-8.3-6.4-22.4-16.9-46-32.1-70.7-45.4-12.3-6.7-24.9-13-37.5-19-12.7-6-25.5-11.6-38.5-16.8-30.2-12.2-61-22.8-92.3-31.8-22.7-6.6-45.5-12.5-68.5-17.8-27.4-6.3-54.9-11.7-82.7-16.2-13.9-2.2-27.8-4.3-41.7-6-5.7-.8-11.4-1.4-17.1-2.1v-.2c5.7.6,11.5,1.2,17.2,1.9,13.9,1.7,27.9,3.6,41.8,5.7,27.8,4.3,55.4,9.4,82.9,15.5,23.3,5.2,46.4,11,69.3,17.6,4.1,1.2,8.2,2.4,12.3,3.6,13.5,4.1,26.9,8.4,40.1,13,13.3,4.6,26.5,9.5,39.5,14.7s26,10.8,38.8,16.7,25.3,12.3,37.7,19c24.8,13.3,48.6,28.5,71.1,45.5,2.8,2.2,5.6,4.2,8.4,6.5l8.2,6.7c5.4,4.6,10.8,9.1,15.9,14,2,1.8,4,3.6,5.9,5.5.6.6,1.2,1.2,1.8,1.8,2.5,2.5,5,4.9,7.5,7.5l7.3,7.7c2.4,2.6,4.7,5.3,7,7.9,1.2,1.3,2.3,2.6,3.5,4l3.3,4.1c2.2,2.8,4.5,5.4,6.6,8.3s4.2,5.6,6.3,8.5l6,8.7c7.8,11.8,14.9,24,21.1,36.7,2.9,6.4,5.9,12.8,8.7,19.2l2.1,4.8c.7,1.6,1.5,3.2,2.3,4.7,1.5,3.2,3,6.3,4.6,9.5,4.6,9.2,9.6,18.2,14.8,27.2.4.7.8,1.5,1.3,2.2,1.5,2.5,2.9,4.9,4.4,7.4,14.7,23.9,30.9,46.8,48.7,68.5,27.3,33.6,58.1,65.1,90.7,94.4Z"/><path class="cls-3" d="m1920,837.7v.6c-12.4,8.7-25.3,16.7-38.6,23.9-17.9,9.8-36.5,18.5-55.5,26-19.1,7.4-38.5,13.9-58.2,19.3-5.7,1.6-11.4,3-17.1,4.4-31.4,7.6-63.2,13.2-95.2,16.8l-2.5.3-5.8.6c-40.7,4.2-81.6,6.2-122.5,6-40.9,0-81.8-1.8-122.6-4.8s-81.5-7.1-122.1-12c-81.2-9.9-162-22.8-242.5-36.7l-30.2-5.3c-10.1-1.6-20.1-3.4-30.2-4.6-20.2-2.7-40.5-4.5-60.9-5.3-2.5-.1-5.1-.3-7.7-.3l-7.6-.2c-5.1-.1-10.2-.3-15.3-.2s-10.2,0-15.3,0l-15.3.4c-20.4.7-40.8,2.1-61.1,4-20.3,2-40.6,4.6-60.7,7.9-20.2,3.2-40.2,7-60.2,11.2s-39.8,9-59.6,14.2c-6.7,1.7-13.4,3.5-20.1,5.4-1,.2-1.9.5-2.9.8-12,3.3-24,6.8-36,10.5-17.2,5.2-34.2,10.8-51.2,16.6-60.3,20.6-119.5,44.7-177.4,71.2-30.5,13.9-60.7,28.6-90.5,44-6.5,3.3-13,6.7-19.4,10.1-10.8,5.7-21.6,11.6-32.4,17.5h-1c11-6.2,22-12.2,33.1-18.1,6.5-3.5,12.9-6.9,19.4-10.3,29.7-15.5,59.8-30.4,90.3-44.5,57.8-26.9,116.9-50.8,177.1-71.8,17.1-5.9,34.2-11.5,51.5-16.9,11.7-3.6,23.5-7.1,35.4-10.5,1-.3,1.9-.5,2.9-.8,26.6-7.5,53.4-14.1,80.4-19.9,20-4.2,40.1-8.1,60.3-11.3s40.5-5.9,60.8-8,40.8-3.4,61.2-4.1l15.3-.4c5.1-.1,10.2,0,15.3-.1s10.2.1,15.3.2l7.7.2c2.6,0,5.1.2,7.7.3,20.5.8,40.9,2.6,61.2,5.2,10.2,1.2,20.3,3,30.4,4.6l30.2,5.3c80.5,14,161.2,27,242.3,36.9s162.6,16.8,244.3,17.2c40.8.3,81.7-1.6,122.3-5.6,1.9-.2,3.8-.4,5.7-.6.8-.1,1.7-.2,2.5-.3,31.9-3.5,63.6-9,94.9-16.4,5.8-1.4,11.5-2.8,17.3-4.4,19.7-5.3,39.2-11.6,58.2-18.9,19-7.3,37.6-15.8,55.5-25.5,13.5-7.1,26.6-15.1,39.1-23.8Z"/></g></g></g></svg>