<svg xmlns="http://www.w3.org/2000/svg" xmlns:xlink="http://www.w3.org/1999/xlink" viewBox="0 0 765.38 1080"><defs><style>.cls-1{isolation:isolate;}.cls-2{fill:#fcb814;}.cls-3,.cls-5{mix-blend-mode:soft-light;}.cls-3{fill:url(#linear-gradient);}.cls-4{fill:#ef5f3c;}.cls-5{fill:url(#linear-gradient-2);}.cls-6{fill:#fff;}</style><linearGradient id="linear-gradient" x1="497.16" y1="459.79" x2="973.14" y2="459.79" gradientUnits="userSpaceOnUse"><stop offset="0" stop-color="#231f20"/><stop offset="0.33" stop-color="#434041" stop-opacity="0.85"/><stop offset="0.72" stop-color="#9f9e9e" stop-opacity="0.43"/><stop offset="1" stop-color="#fff" stop-opacity="0"/></linearGradient><linearGradient id="linear-gradient-2" x1="92.09" y1="1080" x2="92.09" y2="198.37" xlink:href="#linear-gradient"/></defs><g class="cls-1"><g id="Layer_1" data-name="Layer 1"><path class="cls-2" d="M973.14,251V411c-57.65,16.7-114.59,52.41-88.57,128.74a206.76,206.76,0,0,1,6.5,23c17.54,81.25-45.46,86.24-82.55,82.56-2.29-.23-4.48-.49-6.55-.77-1.07-.14-2.11-.29-3.11-.44l-1.6-.25-3.18-.53c-2.29-.4-4.28-.79-5.91-1.14l-.8-.17-1.4-.31-.49-.12c-1.45-.33-2.24-.54-2.24-.54s-.54-.23-1.55-.62l-.13-.05c-1.43-.54-3.74-1.37-6.76-2.31l-1-.31c-.79-.24-1.61-.48-2.48-.72l-.62-.17-1.11-.3-1.43-.38c-3.69-.94-8-1.88-12.64-2.66l-1.23-.2-.33,0-1-.15c-2.94-.43-6-.79-9.24-1q-1-.09-2-.15l-1.86-.11-1.55-.07-1.29,0a126.26,126.26,0,0,0-12.68.25q-1.7.12-3.42.3c-1.86.2-3.74.43-5.62.72-.61.09-1.23.19-1.84.3l-2.59.48-1.1.22c-1.33.28-2.67.59-4,.92l-1.55.4c-1.21.32-2.42.67-3.64,1l-.34.11-1.61.52c-.62.2-1.24.41-1.86.64s-1.18.42-1.77.64l-.34.13-1.38.54c-.5.2-1,.4-1.52.62s-1.09.46-1.64.71c-.1,0-.19.08-.29.12l-1.53.7-.31.14-1.25.6-.71.35-1.52.78-1.25.67c-.35.18-.69.37-1,.57s-.46.25-.68.39c-.43.23-.85.48-1.27.73l-.35.2-1.21.74c-.49.3-1,.6-1.46.92s-1.08.7-1.62,1.06l-.16.11c-28.9,19.51-62.67,25.26-89.14,13.92-.56-.23-1.12-.48-1.67-.73l-1.76-.82c-1.14-.53-2.26-1.1-3.38-1.69-.38-.2-.75-.39-1.12-.6-.74-.4-1.49-.81-2.22-1.24s-1.47-.87-2.21-1.32a99.37,99.37,0,0,1-8.36-5.78c-.39-.3-.78-.6-1.16-.91s-1-.82-1.55-1.25-1.26-1-1.89-1.58q-1.74-1.5-3.47-3.11l-1.15-1.08q-2.86-2.74-5.74-5.83c-.39-.41-.77-.83-1.15-1.25-2.56-2.82-5.13-5.85-7.72-9.12l-1-1.25c-4-5.13-8.06-10.83-12.23-17.17-.38-.57-.75-1.15-1.13-1.73q-3.23-5-6.54-10.45-.63-1-1.26-2.1-1.9-3.16-3.84-6.53c-44-76.13-4-74.41,56.86-73.82S677,438.34,645.69,352.76s65.43-105.45,187.74-83.67C902.29,281.35,947.11,266.4,973.14,251Z"/><path class="cls-3" d="M973.14,251V411c-57.65,16.7-114.59,52.41-88.57,128.74a206.76,206.76,0,0,1,6.5,23c17.54,81.25-45.46,86.24-82.55,82.56-2.29-.23-4.48-.49-6.55-.77-1.07-.14-2.11-.29-3.11-.44l-1.6-.25c-1.11-.17-2.18-.35-3.18-.53-2.29-.4-4.28-.79-5.91-1.14l-.8-.17-1.4-.31-.49-.12a30.22,30.22,0,0,1-3.79-1.16l-.13-.05c-1.43-.54-3.74-1.37-6.76-2.31l-1-.31c-.79-.24-1.61-.48-2.48-.72l-.62-.17-1.11-.3c-.47-.13-.94-.26-1.43-.38-3.69-.94-8-1.88-12.64-2.66l-1.23-.2-.33,0-1-.15c-2.94-.43-6-.79-9.24-1-.67-.06-1.33-.11-2-.15l-1.86-.11-1.55-.07-1.29,0a126.26,126.26,0,0,0-12.68.25q-1.7.12-3.42.3c-1.86.2-3.74.43-5.62.72-.62.09-1.23.19-1.84.3l-2.59.48-1.1.22c-1.33.28-2.67.59-4,.92l-1.55.4c-1.21.32-2.42.67-3.64,1l-.34.11-1.61.52c-.62.2-1.24.42-1.86.64l-1.77.64-.34.13-1.38.54c-.5.2-1,.4-1.52.62s-1.09.46-1.64.71c-.1,0-.19.08-.29.12l-1.53.7-.31.14-1.25.6-.71.35c-.51.25-1,.51-1.52.78l-1.25.67c-.35.18-.7.37-1,.57s-.46.25-.68.39c-.43.23-.85.47-1.27.73l-.35.2-1.21.74c-.49.29-1,.6-1.46.92s-1.08.7-1.62,1.06l-.16.11-.77.52c-26.41,18.22-57.35,24.65-82.51,15.7-2-.71-3.94-1.47-5.86-2.3-.56-.23-1.12-.48-1.67-.73l-1.76-.82c-1.14-.53-2.26-1.1-3.38-1.69-.38-.2-.75-.39-1.12-.6-.74-.4-1.49-.81-2.22-1.24s-1.48-.87-2.21-1.32a99.37,99.37,0,0,1-8.36-5.78c-.39-.3-.78-.6-1.16-.91s-1-.82-1.55-1.25-1.26-1-1.89-1.58q-1.74-1.5-3.47-3.11l-1.15-1.08q-2.86-2.74-5.74-5.83c-.39-.41-.77-.83-1.15-1.25-2.56-2.82-5.13-5.85-7.72-9.12l-1-1.25c-4-5.13-8.06-10.83-12.23-17.17-.38-.57-.75-1.15-1.13-1.73q-3.23-5-6.54-10.45-.63-1-1.26-2.1-1.9-3.16-3.84-6.53c-44-76.13-4-74.41,56.86-73.82S677,438.34,645.69,352.76s65.43-105.45,187.74-83.67C902.29,281.35,947.11,266.4,973.14,251Z"/><path class="cls-4" d="M262,394.19c-2.74,60.43-30.68,122.86-89.25,167.91a214.49,214.49,0,0,0-39.59,39.48c-.39.52-.79,1-1.17,1.57-102.34,136-13.89,364.08,24.81,448.43l.36.79c6,13,10.76,22.54,13.37,27.63H-78V261.06q18.93-13.2,37.07-23.38l.5-.27q9.57-5.4,18.91-10h0a317.52,317.52,0,0,1,41.35-17C172.32,160.57,267.49,273.39,262,394.19Z"/><path class="cls-5" d="M262,394.19c-2.74,60.43-30.68,122.86-89.25,167.91a214.49,214.49,0,0,0-39.59,39.48c-.39.52-.79,1-1.17,1.57-102.34,136-13.89,364.08,24.81,448.43l.36.79c6,13,10.76,22.54,13.37,27.63H-78V261.06q18.93-13.2,37.07-23.38l.5-.27q9.57-5.4,18.91-10h0a317.52,317.52,0,0,1,41.35-17C172.32,160.57,267.49,273.39,262,394.19Z"/><path class="cls-6" d="M745.37,1080h-2.06q-8-20.6-14.37-41.79c-4.65-15.44-8.77-31-12.19-46.8-.93-3.92-1.66-7.89-2.48-11.83l-1.21-5.93c-.4-2-.73-4-1.09-5.95-.7-4-1.46-7.93-2.12-11.9L708,943.85c-.33-2-.61-4-.87-6l-.8-6c-.13-1-.27-2-.4-3-.08-.62-.17-1.24-.25-1.87-.31-2.37-.61-4.74-.85-7.12l-1.35-12-1.1-12-.54-6-.42-6-.83-12.06L700,859.63l-.3-6-.17-6-.35-12.08L699,823.38c-.14-8.06,0-16.12.09-24.18,0-.68,0-1.35,0-2,0-3.35.17-6.7.26-10l.36-12.08c.4-8,.73-16.1,1.22-24.15s1.11-16.09,1.59-24.1,1.1-16,1.24-24.06q1.2-33.54-.67-67.1Q702.33,621,701,606.46a764.3,764.3,0,0,0-15.39-95.09c-.82-3.93-1.84-7.82-2.79-11.72l-2.9-11.7-3.17-11.62-1.59-5.82-1.72-5.77-3.45-11.55c-1.17-3.84-2.46-7.64-3.69-11.47-2.41-7.67-5.14-15.22-7.79-22.81-.74-2.2-1.56-4.37-2.38-6.54-.61-1.59-1.21-3.17-1.8-4.76-1.43-3.76-2.78-7.54-4.29-11.27-3-7.45-5.9-14.95-9.13-22.31-6.19-14.83-13-29.39-20-43.87-14.21-28.83-29.72-57-46.65-84.38C540.44,191,501.53,139.51,458.88,91.34q-24.69-27.86-51-54.17-7.81-7.8-15.79-15.46-11.32-10.87-23-21.42h.74q11.52,10.27,22.74,20.89,8.15,7.7,16.12,15.56,26.46,26,51.29,53.63a1122.2,1122.2,0,0,1,116.2,154.2c8.57,13.65,16.7,27.57,24.58,41.62l5.83,10.59c1.93,3.54,3.77,7.13,5.65,10.69,3.81,7.1,7.32,14.36,11,21.55,7,14.51,13.89,29.1,20.12,44,3.24,7.38,6.15,14.9,9.19,22.37,1.24,3.05,2.37,6.15,3.54,9.23l.78,2.06c1.4,3.78,2.9,7.52,4.2,11.34,2.67,7.61,5.42,15.18,7.85,22.87,1.24,3.84,2.54,7.65,3.72,11.51L676.07,464l1.73,5.79,1.6,5.83,3.2,11.67L685.53,499c1,3.92,2,7.82,2.82,11.76a767.79,767.79,0,0,1,15.58,95.44q1.34,14.33,2.13,28.7,1.88,33.95.62,68c-.16,8.07-.82,16.11-1.29,24.16s-1.08,16-1.62,24.07-.84,16.06-1.24,24.09l-.38,12.05c-.12,3.92-.27,7.84-.3,11.77v.28a906.43,906.43,0,0,0,6.34,127.48l.24,1.85q4,31.36,10.58,62.34c3.33,15.72,7.38,31.28,12,46.69Q737.35,1059.06,745.37,1080Z"/><path class="cls-6" d="M659.29,1080h-3.73l-1.92-1.72c-5.25-4.69-10.37-9.51-15.51-14.31s-10.19-9.7-15.16-14.68-9.91-10-14.83-15-9.71-10.19-14.43-15.42c-9.49-10.39-18.74-21-27.61-31.93a625.07,625.07,0,0,1-49-68.75q-2.45-4-4.83-8.11c-.43-.71-.85-1.43-1.26-2.15-5.09-8.74-10-17.6-14.5-26.64-1.61-3.13-3.09-6.33-4.64-9.5-.76-1.59-1.55-3.16-2.28-4.76l-2.16-4.83c-2.87-6.46-5.79-12.79-8.69-19.15a330.49,330.49,0,0,0-20.85-36.36L452,798c-2-2.83-4.18-5.61-6.26-8.42s-4.32-5.5-6.51-8.23l-3.3-4.07c-1.11-1.36-2.29-2.65-3.44-4-2.32-2.62-4.56-5.31-7-7.86l-7.2-7.64c-2.43-2.51-5-4.93-7.43-7.41l-.74-.74c-2.23-2.22-4.57-4.35-6.88-6.48-5.07-4.83-10.43-9.34-15.74-13.91l-8.14-6.64c-2.7-2.22-5.53-4.29-8.29-6.44a550.54,550.54,0,0,0-70.69-45.4q-18.51-10-37.55-19T224.26,635A967.6,967.6,0,0,0,132,603.15q-34-9.93-68.48-17.78-41.05-9.43-82.68-16.18-20.79-3.36-41.7-6.05Q-69.45,562-78,561.08v-.22q8.59.89,17.19,1.91,20.92,2.49,41.77,5.7,41.67,6.4,82.88,15.48c23.27,5.2,46.41,11,69.33,17.63q6.15,1.77,12.29,3.62c13.46,4.07,26.86,8.36,40.14,13s26.47,9.54,39.54,14.74,26,10.82,38.76,16.7,25.34,12.28,37.73,18.95a551.86,551.86,0,0,1,71.11,45.5c2.78,2.16,5.63,4.23,8.35,6.47l8.2,6.66c5.35,4.6,10.75,9.13,15.87,14,2,1.82,4,3.62,5.89,5.49.6.58,1.2,1.17,1.79,1.77,2.5,2.49,5.05,4.92,7.5,7.45l7.27,7.69c2.41,2.57,4.68,5.27,7,7.91,1.15,1.33,2.35,2.62,3.46,4l3.34,4.1c2.21,2.75,4.51,5.43,6.58,8.29s4.25,5.63,6.33,8.48l6,8.72a330.84,330.84,0,0,1,21.1,36.68c2.94,6.42,5.89,12.85,8.71,19.24l2.14,4.79c.72,1.6,1.51,3.16,2.26,4.74,1.53,3.15,3,6.33,4.59,9.45,4.62,9.21,9.56,18.24,14.75,27.15.41.72.84,1.45,1.26,2.17,1.45,2.48,2.92,4.94,4.41,7.4a619.66,619.66,0,0,0,48.66,68.52C595.89,1019.24,626.66,1050.65,659.29,1080Z"/><path class="cls-6" d="M1842,837.62v.57a414.34,414.34,0,0,1-38.63,23.92,485.22,485.22,0,0,1-55.53,26,582,582,0,0,1-58.24,19.27q-8.5,2.33-17.08,4.42a777.34,777.34,0,0,1-95.23,16.77l-2.53.29-5.76.63a1152.5,1152.5,0,0,1-122.51,6c-40.91,0-81.8-1.78-122.58-4.75s-81.48-7.13-122.07-12c-81.18-9.88-162-22.75-242.5-36.7l-30.2-5.31c-10.07-1.64-20.1-3.42-30.23-4.63-20.21-2.66-40.54-4.48-60.92-5.29-2.55-.11-5.1-.29-7.65-.33l-7.64-.18c-5.1-.11-10.2-.29-15.3-.23s-10.2,0-15.3,0l-15.29.38q-30.59,1.07-61.07,4.05t-60.7,7.9c-20.16,3.21-40.22,7-60.19,11.25s-39.82,9-59.58,14.16q-10.08,2.61-20.1,5.39c-1,.25-1.92.52-2.87.79q-18,5-36,10.52-25.74,7.86-51.2,16.57c-60.32,20.62-119.47,44.65-177.44,71.19q-45.78,20.92-90.53,44-9.74,5-19.42,10.13-16.26,8.61-32.37,17.5h-1q16.45-9.23,33.08-18.14,9.68-5.19,19.4-10.28,44.6-23.32,90.28-44.55a1902.37,1902.37,0,0,1,177.08-71.77q25.61-8.87,51.5-16.87,17.61-5.46,35.37-10.47c1-.28,1.91-.55,2.87-.81q39.89-11.19,80.4-19.91c20-4.25,40.1-8.1,60.31-11.34s40.49-5.89,60.85-8,40.79-3.39,61.24-4.13l15.35-.39c5.12-.06,10.24,0,15.35-.06s10.24.11,15.35.21l7.68.18c2.56,0,5.11.22,7.67.32,20.46.79,40.88,2.6,61.18,5.25,10.17,1.2,20.27,3,30.37,4.61l30.19,5.28c80.51,14,161.22,27,242.32,36.94s162.63,16.77,244.32,17.18a1153.54,1153.54,0,0,0,122.31-5.63c1.9-.2,3.81-.4,5.71-.62.85-.08,1.69-.18,2.54-.27a777.26,777.26,0,0,0,94.89-16.37q8.67-2.07,17.27-4.39a577.84,577.84,0,0,0,58.23-18.88A482.31,482.31,0,0,0,1803,861.47,410.72,410.72,0,0,0,1842,837.62Z"/></g></g></svg>