<svg xmlns="http://www.w3.org/2000/svg" xmlns:xlink="http://www.w3.org/1999/xlink" viewBox="0 0 1920 1080"><defs><style>.cls-1{isolation:isolate;}.cls-2{fill:#340c39;}.cls-11,.cls-3,.cls-5,.cls-7,.cls-9{mix-blend-mode:soft-light;}.cls-3{fill:url(#linear-gradient);}.cls-4{fill:#440d4c;}.cls-5{fill:url(#linear-gradient-2);}.cls-6{fill:#530763;}.cls-7{fill:url(#linear-gradient-3);}.cls-8{fill:#fcb814;}.cls-9{fill:url(#linear-gradient-4);}.cls-10{fill:#ef5f3c;}.cls-11{fill:url(#linear-gradient-5);}.cls-12{fill:#fff;}</style><linearGradient id="linear-gradient" x1="1338.24" y1="1351.28" x2="581.76" y2="-270.99" gradientUnits="userSpaceOnUse"><stop offset="0" stop-color="#231f20"/><stop offset="0.51" stop-color="#a1a0a0" stop-opacity="0.43"/><stop offset="1" stop-color="#fff" stop-opacity="0"/></linearGradient><linearGradient id="linear-gradient-2" y1="540" x2="1760.75" y2="540" gradientUnits="userSpaceOnUse"><stop offset="0" stop-color="#231f20"/><stop offset="0.33" stop-color="#3f3b3c" stop-opacity="0.87"/><stop offset="0.69" stop-color="#918f8f" stop-opacity="0.5"/><stop offset="1" stop-color="#fff" stop-opacity="0"/></linearGradient><linearGradient id="linear-gradient-3" y1="540.14" x2="1427.71" y2="540.14" gradientUnits="userSpaceOnUse"><stop offset="0" stop-color="#231f20"/><stop offset="0.33" stop-color="#434041" stop-opacity="0.85"/><stop offset="0.72" stop-color="#9f9e9e" stop-opacity="0.43"/><stop offset="1" stop-color="#fff" stop-opacity="0"/></linearGradient><linearGradient id="linear-gradient-4" x1="1061.17" y1="550.52" x2="1404.75" y2="550.52" xlink:href="#linear-gradient-3"/><linearGradient id="linear-gradient-5" x1="618.45" y1="1080" x2="618.45" y2="94.96" xlink:href="#linear-gradient-3"/></defs><title>bg-1-mob</title><g class="cls-1"><g id="Layer_1" data-name="Layer 1"><rect class="cls-2" y="0.29" width="1920" height="1079.71"/><rect class="cls-3" y="0.29" width="1920" height="1079.71"/><path class="cls-4" d="M312,.29s272.13,495.48,967.75,658.76,432,421,432,421H0V0Z"/><path class="cls-5" d="M1711.74,1080H0V0L312,.29s28.83,52.49,91.71,128.93c.61.74,1.22,1.49,1.85,2.24a1448.89,1448.89,0,0,0,136.62,143.6A1558.65,1558.65,0,0,0,736.45,427c140.92,93.32,320.36,179.77,543.29,232.1,178.16,41.82,293.4,89.83,366.26,138.12l2.71,1.8h0c56.44,37.95,86.86,76,101.23,111.38.2.49.39,1,.58,1.45C1787.65,1005.8,1711.74,1080,1711.74,1080Z"/><path class="cls-6" d="M1427.71.29q-37,18.39-72.17,36.45l-.84.43q-109,55.92-201.43,108.64c-.52.29-1,.59-1.57.9C994,236.51,870.54,319.38,774.86,395.51q-20,15.92-38.41,31.44C668.73,484.05,616.91,537.18,578,586.43l-1,1.32c-40,50.87-66.11,97.57-81.69,140.22q-3.46,9.48-6.24,18.69c-.32,1-.62,2-.91,3-21.87,75-10.67,136.67,14,185.56.31.64.63,1.27,1,1.9,35.22,68.3,96.64,111.34,129.73,130.75,13.8,8.1,22.68,12.09,22.68,12.09H0V530.71c50.54-31,109.31-57.53,177.63-77.46A1277.34,1277.34,0,0,0,340,394.19q8.64-3.84,17.05-7.76c74.15-34.49,135.12-72.74,185.11-111.37,60.05-46.4,104.26-93.34,136.43-135C740.1,60.5,757.6.29,757.6.29Z"/><path class="cls-7" d="M655.55,1080H0V530.71c50.54-31,109.31-57.53,177.63-77.46,489.83-142.86,580-453,580-453h670.11C-79.19,749.79,655.55,1080,655.55,1080Z"/><path class="cls-8" d="M1404.75,399.8V515.32c-41.61,12-82.71,37.83-63.93,92.92a151.43,151.43,0,0,1,4.69,16.63c12.66,58.65-32.82,62.25-59.59,59.6-1.65-.17-3.23-.36-4.73-.56l-2.24-.32c-.39-.05-.78-.11-1.16-.18l-2.29-.38c-1.65-.29-3.09-.57-4.27-.82l-.57-.12-1-.23-.36-.08c-1-.24-1.62-.39-1.62-.39s-.39-.17-1.11-.45l-.1,0c-1-.39-2.7-1-4.88-1.66l-.74-.23c-.57-.17-1.16-.35-1.79-.52-.15,0-.3-.09-.45-.12l-.8-.22-1-.27c-2.67-.68-5.74-1.36-9.13-1.92l-.88-.15-.24,0-.69-.11c-2.13-.31-4.36-.57-6.67-.76l-1.46-.11-1.34-.08-1.12-.05-.93,0a88.33,88.33,0,0,0-9.15.18l-2.47.21c-1.34.15-2.7.31-4.06.52l-1.32.22c-.63.11-1.25.22-1.87.35l-.8.16c-1,.2-1.93.42-2.89.66l-1.12.29c-.87.23-1.75.48-2.63.75l-.24.08-1.17.37c-.44.15-.89.3-1.34.47s-.85.3-1.28.46l-.24.09c-.33.13-.67.25-1,.39l-1.1.45-1.18.51-.21.09-1.1.5-.23.1-.9.44-.51.25-1.1.56-.9.49c-.25.13-.5.26-.75.41a4.76,4.76,0,0,0-.49.28l-.92.53a2,2,0,0,0-.25.14c-.3.18-.59.35-.88.54s-.7.43-1,.66-.78.5-1.17.76l-.11.08c-20.86,14.09-45.24,18.24-64.35,10-.4-.16-.81-.34-1.2-.53l-1.27-.59c-.83-.38-1.63-.79-2.44-1.22l-.81-.43c-.54-.29-1.08-.58-1.6-.9s-1.06-.62-1.6-1a70.84,70.84,0,0,1-6-4.17c-.29-.22-.57-.43-.84-.66s-.74-.59-1.12-.9-.91-.75-1.36-1.14c-.84-.72-1.68-1.47-2.51-2.24l-.83-.78q-2.07-2-4.14-4.21l-.83-.9q-2.78-3.06-5.57-6.59l-.72-.9c-2.89-3.7-5.82-7.82-8.83-12.39l-.81-1.25q-2.32-3.58-4.72-7.55c-.31-.49-.61-1-.91-1.51-.92-1.52-1.84-3.1-2.77-4.72-31.74-54.95-2.93-53.71,41-53.28S1191,535,1168.39,473.25s47.23-76.11,135.51-60.39C1353.61,421.71,1386,410.92,1404.75,399.8Z"/><path class="cls-9" d="M1404.75,399.8V515.32c-41.61,12-82.71,37.83-63.93,92.92a151.43,151.43,0,0,1,4.69,16.63c12.66,58.65-32.82,62.25-59.59,59.6-1.65-.17-3.23-.36-4.73-.56l-2.24-.32c-.39-.05-.78-.11-1.16-.18-.8-.12-1.57-.25-2.29-.38-1.65-.29-3.09-.57-4.27-.82l-.57-.12-1-.23-.36-.08a22.17,22.17,0,0,1-2.73-.84l-.1,0c-1-.39-2.7-1-4.88-1.66l-.74-.23c-.57-.17-1.16-.35-1.79-.52-.15,0-.3-.09-.45-.12l-.8-.22c-.34-.09-.68-.19-1-.27-2.67-.68-5.74-1.36-9.13-1.92l-.88-.15-.24,0-.69-.11c-2.13-.31-4.36-.57-6.67-.76l-1.46-.11-1.34-.08-1.12-.05-.93,0a88.33,88.33,0,0,0-9.15.18l-2.47.21c-1.34.15-2.7.31-4.06.52l-1.32.22c-.63.11-1.25.22-1.87.35l-.8.16c-1,.2-1.93.42-2.89.66l-1.12.29c-.87.23-1.75.48-2.63.75l-.24.08-1.17.37-1.34.47-1.28.46-.24.09c-.33.12-.67.25-1,.39l-1.1.45-1.18.51-.21.09-1.1.5-.23.1-.9.44-.51.25-1.1.56-.9.49c-.25.13-.51.26-.75.41a4.76,4.76,0,0,0-.49.28c-.31.17-.62.34-.92.53a2,2,0,0,0-.25.14c-.29.17-.59.35-.88.54s-.7.43-1,.66-.78.5-1.17.76l-.11.08-.56.38c-19.06,13.15-41.4,17.79-59.56,11.33-1.43-.51-2.84-1.06-4.23-1.66-.4-.16-.81-.34-1.2-.53l-1.27-.59c-.83-.38-1.63-.79-2.44-1.22l-.81-.43c-.54-.29-1.08-.58-1.6-.9s-1.07-.62-1.6-1a70.84,70.84,0,0,1-6-4.17c-.29-.22-.57-.43-.84-.66s-.74-.59-1.12-.9-.91-.75-1.36-1.14c-.84-.72-1.68-1.47-2.51-2.24l-.83-.78q-2.07-2-4.14-4.21l-.83-.9q-2.78-3.06-5.57-6.59l-.72-.9c-2.89-3.7-5.82-7.82-8.83-12.39l-.81-1.25q-2.32-3.58-4.72-7.55c-.31-.49-.61-1-.91-1.51-.92-1.52-1.84-3.1-2.77-4.72-31.74-54.95-2.93-53.71,41-53.28S1191,535,1168.39,473.25s47.23-76.11,135.51-60.39C1353.61,421.71,1386,410.92,1404.75,399.8Z"/><path class="cls-10" d="M939.63,1080H625.85L621,1067.91,559.29,915.54l-.89-2.2L483.38,728,416,561.38l-.1-.26-70.7-174.69L297.27,268.12q15.39-24.75,31.31-45.55L329,222q8.37-11,16.89-20.92h0A395.23,395.23,0,0,1,385.2,161c100.86-89,207-79.91,281.49-20.9,36.88,29.22,66,70.66,82.93,118.52A286.72,286.72,0,0,1,763,395.51,301,301,0,0,1,727.3,499.34,277,277,0,0,0,700.75,565c-.2.79-.4,1.6-.59,2.41a279.43,279.43,0,0,0-8,56.15c0,.75-.07,1.5-.08,2.26-2.94,84.58,30.45,169.2,75.26,243.6l1.55,2.55C824.43,963.48,897,1039.24,939.63,1080Z"/><path class="cls-11" d="M939.63,1080H625.85L621,1067.91,559.29,915.54l-.89-2.2L483.38,728,416,561.38l-.1-.26-70.7-174.69L297.27,268.12q15.39-24.75,31.31-45.55L329,222q8.37-11,16.89-20.92h0A395.23,395.23,0,0,1,385.2,161c100.86-89,207-79.91,281.49-20.9,36.88,29.22,66,70.66,82.93,118.52A286.72,286.72,0,0,1,763,395.51,301,301,0,0,1,727.3,499.34,277,277,0,0,0,700.75,565c-.2.79-.4,1.6-.59,2.41a279.43,279.43,0,0,0-8,56.15c0,.75-.07,1.5-.08,2.26-2.94,84.58,30.45,169.2,75.26,243.6l1.55,2.55C824.43,963.48,897,1039.24,939.63,1080Z"/><path class="cls-12" d="M1392,1080H1390q-8-20.6-14.37-41.79c-4.65-15.44-8.77-31-12.19-46.8-.93-3.92-1.66-7.89-2.48-11.83l-1.21-5.93c-.4-2-.73-4-1.09-5.95-.7-4-1.46-7.93-2.12-11.9l-1.88-11.95c-.33-2-.61-4-.87-6l-.8-6c-.13-1-.27-2-.4-3-.08-.62-.17-1.24-.25-1.87-.31-2.37-.61-4.74-.85-7.12l-1.35-12-1.1-12-.54-6-.42-6-.83-12.06-.59-12.08-.3-6-.17-6-.35-12.08-.12-12.09c-.14-8.06,0-16.12.09-24.18,0-.68,0-1.35,0-2,0-3.35.17-6.7.26-10l.36-12.08c.4-8,.73-16.1,1.22-24.15s1.11-16.09,1.59-24.1,1.1-16,1.24-24.06q1.2-33.54-.67-67.1-.81-14.61-2.19-29.17a764.3,764.3,0,0,0-15.39-95.09c-.82-3.93-1.84-7.82-2.79-11.72l-2.9-11.7-3.17-11.62-1.59-5.82-1.72-5.77-3.45-11.55c-1.17-3.84-2.46-7.64-3.69-11.47-2.41-7.67-5.14-15.22-7.79-22.81-.74-2.2-1.56-4.37-2.38-6.54-.61-1.59-1.21-3.17-1.8-4.76-1.43-3.76-2.78-7.54-4.29-11.27-3-7.45-5.9-14.95-9.13-22.31-6.19-14.83-13-29.39-20-43.87-14.21-28.83-29.72-57-46.65-84.38C1187.11,191,1148.2,139.51,1105.55,91.34q-24.69-27.86-51-54.17-7.82-7.8-15.79-15.46-11.33-10.87-23-21.42h.74q11.52,10.27,22.74,20.89,8.14,7.7,16.12,15.56,26.46,26,51.29,53.63a1122.2,1122.2,0,0,1,116.2,154.2c8.57,13.65,16.7,27.57,24.58,41.62l5.83,10.59c1.93,3.54,3.77,7.13,5.65,10.69,3.81,7.1,7.32,14.36,11,21.55,7,14.51,13.89,29.1,20.12,44,3.24,7.38,6.15,14.9,9.19,22.37,1.24,3.05,2.37,6.15,3.54,9.23l.78,2.06c1.4,3.78,2.9,7.52,4.2,11.34,2.67,7.61,5.42,15.18,7.85,22.87,1.24,3.84,2.54,7.65,3.72,11.51l3.48,11.58,1.73,5.79,1.6,5.83,3.2,11.67L1332.2,499c1,3.92,2,7.82,2.82,11.76a767.79,767.79,0,0,1,15.58,95.44q1.34,14.33,2.13,28.7,1.88,33.95.62,68c-.16,8.07-.82,16.11-1.29,24.16s-1.08,16-1.62,24.07-.84,16.06-1.24,24.09l-.38,12.05c-.12,3.92-.27,7.84-.3,11.77v.28a906.43,906.43,0,0,0,6.34,127.48l.24,1.85q4,31.36,10.58,62.34c3.33,15.72,7.38,31.28,12,46.69Q1384,1059.06,1392,1080Z"/><path class="cls-12" d="M1049.83.29Q1048.41,2,1047,3.63a360.83,360.83,0,0,1-40,38.75,418.38,418.38,0,0,1-45.26,32.54,461.87,461.87,0,0,1-49.07,26.48l-6.33,2.93-3.17,1.46-3.21,1.36L887,112.55c-4.31,1.72-8.69,3.29-13,5l-6.54,2.43-6.61,2.22c-4.42,1.45-8.81,3-13.24,4.38l-13.39,3.94-3.34,1c-1.12.33-2.23.66-3.36.95l-6.75,1.73-13.52,3.46-13.62,3-6.82,1.49c-2.26.53-4.56.86-6.84,1.31-9.16,1.63-18.28,3.46-27.5,4.67l-27.55,4c-4.57.7-9.17,1.29-13.73,2.08l-13.67,2.47c-9.14,1.49-18.16,3.61-27.23,5.47-4.55.9-9,2.07-13.53,3.16l-13.5,3.29-13.39,3.7c-4.46,1.25-8.94,2.4-13.35,3.83-8.85,2.75-17.74,5.36-26.47,8.45-4.38,1.51-8.78,2.94-13.14,4.51l-13,4.83c-2.17.81-4.35,1.59-6.51,2.43l-6.45,2.59L538,204.08l-12.76,5.5-2.09.9c-1.43.61-2.86,1.22-4.28,1.87l-6.32,2.9c-4.2,1.94-8.44,3.82-12.62,5.81l-12.5,6.08c-16.58,8.28-33,16.92-49,26.27q-6.6,3.83-13.13,7.77V259.1q6.06-3.71,12.18-7.33,12.3-7.31,24.89-14.09l.5-.27q9.39-5.1,18.91-10h0c1.53-.8,3.07-1.58,4.6-2.36C503,216.65,519.93,209,537,201.69l12.92-5.23,6.46-2.61c2.17-.86,4.35-1.64,6.53-2.46L576,186.51c4.37-1.58,8.78-3,13.17-4.56,8.76-3.12,17.67-5.76,26.54-8.54,4.42-1.44,8.93-2.61,13.4-3.88l13.43-3.74,13.54-3.34c4.51-1.1,9-2.29,13.57-3.2l13.64-2.92c4.53-1,9.11-1.82,13.69-2.64l13.73-2.45c4.58-.78,9.19-1.36,13.79-2.05l27.55-4c9.19-1.18,18.27-3,27.39-4.59,2.27-.43,4.57-.76,6.83-1.28l6.78-1.47,13.58-2.94,13.46-3.4,6.73-1.71c.74-.19,1.47-.4,2.21-.61,1.49-.42,3-.88,4.47-1.3l13.33-3.9c4.41-1.38,8.79-2.89,13.19-4.33l6.59-2.18,6.51-2.41c4.33-1.63,8.69-3.2,13-4.88L899,104.94l3.21-1.32,3.16-1.44,6.32-2.87a460.53,460.53,0,0,0,49.05-26A422.86,422.86,0,0,0,1006,41.25,359.17,359.17,0,0,0,1046.36,3.1l2.49-2.81Z"/><path class="cls-12" d="M1162.63,1080h-3.73l-1.92-1.72c-5.25-4.69-10.37-9.51-15.51-14.31s-10.19-9.7-15.16-14.68-9.91-10-14.83-15-9.71-10.19-14.43-15.42c-9.49-10.39-18.74-21-27.61-31.93a625.07,625.07,0,0,1-49-68.75q-2.44-4-4.83-8.11c-.43-.71-.85-1.43-1.26-2.15-5.09-8.74-10-17.6-14.5-26.64-1.61-3.13-3.09-6.33-4.64-9.5-.76-1.59-1.55-3.16-2.28-4.76l-2.16-4.83c-2.87-6.46-5.79-12.79-8.69-19.15a330.49,330.49,0,0,0-20.85-36.36L955.3,798c-2-2.83-4.18-5.61-6.26-8.42s-4.32-5.5-6.51-8.23l-3.3-4.07c-1.11-1.36-2.29-2.65-3.44-4-2.32-2.62-4.56-5.31-7-7.86l-7.2-7.64c-2.43-2.51-5-4.93-7.43-7.41l-.74-.74c-2.23-2.22-4.57-4.35-6.88-6.48-5.07-4.83-10.43-9.34-15.74-13.91l-8.14-6.64c-2.7-2.22-5.53-4.29-8.29-6.44a550.54,550.54,0,0,0-70.69-45.4q-18.51-10-37.55-19T727.6,635a967.6,967.6,0,0,0-92.28-31.89q-34-9.93-68.48-17.78-41.05-9.43-82.68-16.18-20.79-3.36-41.7-6.05-8.56-1.1-17.14-2.06v-.22q8.6.89,17.19,1.91,20.92,2.49,41.77,5.7,41.67,6.4,82.88,15.48c23.27,5.2,46.41,11,69.33,17.63q6.15,1.77,12.29,3.62c13.46,4.07,26.86,8.36,40.14,13s26.47,9.54,39.54,14.74,26,10.82,38.76,16.7,25.34,12.28,37.73,18.95a551.86,551.86,0,0,1,71.11,45.5c2.78,2.16,5.63,4.23,8.35,6.47l8.2,6.66c5.35,4.6,10.75,9.13,15.87,14,2,1.82,4,3.62,5.89,5.49.6.58,1.2,1.17,1.79,1.77,2.5,2.49,5.05,4.92,7.5,7.45l7.27,7.69c2.41,2.57,4.68,5.27,7,7.91,1.15,1.33,2.35,2.62,3.46,4l3.34,4.1c2.21,2.75,4.51,5.43,6.58,8.29s4.25,5.63,6.33,8.48l6,8.72a330.84,330.84,0,0,1,21.1,36.68c2.94,6.42,5.89,12.85,8.71,19.24l2.14,4.79c.72,1.6,1.51,3.16,2.26,4.74,1.53,3.15,3,6.33,4.59,9.45,4.62,9.21,9.56,18.24,14.75,27.15.41.72.84,1.45,1.26,2.17,1.45,2.48,2.92,4.94,4.41,7.4a619.66,619.66,0,0,0,48.66,68.52C1099.23,1019.24,1130,1050.65,1162.63,1080Z"/><path class="cls-12" d="M1920,837.62v.57a414.34,414.34,0,0,1-38.63,23.92,485.22,485.22,0,0,1-55.53,26,582,582,0,0,1-58.24,19.27q-8.5,2.33-17.08,4.42a777.34,777.34,0,0,1-95.23,16.77l-2.53.29-5.76.63a1152.5,1152.5,0,0,1-122.51,6c-40.91,0-81.8-1.78-122.58-4.75s-81.48-7.13-122.07-12c-81.18-9.88-162-22.75-242.5-36.7l-30.2-5.31c-10.07-1.64-20.1-3.42-30.23-4.63-20.21-2.66-40.54-4.48-60.92-5.29-2.55-.11-5.1-.29-7.65-.33l-7.64-.18c-5.1-.11-10.2-.29-15.3-.23s-10.2,0-15.3,0l-15.29.38q-30.59,1.07-61.07,4.05t-60.7,7.9c-20.16,3.21-40.22,7-60.19,11.25s-39.82,9-59.58,14.16q-10.08,2.61-20.1,5.39c-1,.25-1.92.52-2.87.79q-18,5-36,10.52-25.74,7.86-51.2,16.57c-60.32,20.62-119.47,44.65-177.44,71.19q-45.78,20.92-90.53,44-9.73,5-19.42,10.13-16.26,8.61-32.37,17.5h-1q16.46-9.23,33.08-18.14,9.68-5.19,19.4-10.28,44.6-23.32,90.28-44.55a1902.37,1902.37,0,0,1,177.08-71.77q25.6-8.87,51.5-16.87,17.61-5.46,35.37-10.47c1-.28,1.91-.55,2.87-.81q39.89-11.19,80.4-19.91c20-4.25,40.1-8.1,60.31-11.34s40.49-5.89,60.85-8,40.79-3.39,61.24-4.13l15.35-.39c5.12-.06,10.24,0,15.35-.06s10.24.11,15.35.21l7.68.18c2.56,0,5.11.22,7.67.32,20.46.79,40.88,2.6,61.18,5.25,10.17,1.2,20.27,3,30.37,4.61l30.19,5.28c80.51,14,161.22,27,242.32,36.94s162.63,16.77,244.32,17.18a1153.54,1153.54,0,0,0,122.31-5.63c1.9-.2,3.81-.4,5.71-.62.85-.08,1.69-.18,2.54-.27a777.26,777.26,0,0,0,94.89-16.37q8.67-2.07,17.27-4.39a577.84,577.84,0,0,0,58.23-18.88A482.31,482.31,0,0,0,1881,861.47,410.72,410.72,0,0,0,1920,837.62Z"/></g></g></svg>