<?xml version="1.0" encoding="utf-8"?>
<!-- Generator: Adobe Illustrator 24.0.1, SVG Export Plug-In . SVG Version: 6.00 Build 0)  -->
<svg version="1.1" id="Layer_1" xmlns="http://www.w3.org/2000/svg" xmlns:xlink="http://www.w3.org/1999/xlink" x="0px" y="0px"
	 viewBox="0 0 1920 1080" style="enable-background:new 0 0 1920 1080;" xml:space="preserve">
<style type="text/css">
	.st0{fill:#340C39;}
	.st1{fill:url(#SVGID_1_);}
	.st2{fill:#440D4C;}
	.st3{fill:url(#SVGID_2_);}
	.st4{display:none;}
	.st5{display:inline;fill:#EF5F3C;}
	.st6{display:inline;fill:#FCB814;}
	.st7{fill:#530763;}
	.st8{fill:url(#SVGID_3_);}
	.st9{fill:#FCB814;}
	.st10{fill:url(#SVGID_4_);}
	.st11{display:none;fill:#FFFFFF;}
	.st12{font-family:'Raleway-Black';}
	.st13{font-size:172.1067px;}
	.st14{letter-spacing:4;}
	.st15{fill:#EF5F3C;}
	.st16{fill:url(#SVGID_5_);}
	.st17{fill:#FFFFFF;}
</style>
<rect y="0.3" class="st0" width="1920" height="1079.7"/>
<linearGradient id="SVGID_1_" gradientUnits="userSpaceOnUse" x1="1338.2384" y1="1351.2799" x2="581.7616" y2="-270.9899">
	<stop  offset="0" style="stop-color:#231F20"/>
	<stop  offset="7.415706e-02" style="stop-color:#363334;stop-opacity:0.9258"/>
	<stop  offset="0.4149" style="stop-color:#8B898A;stop-opacity:0.5851"/>
	<stop  offset="0.6931" style="stop-color:#CAC9C9;stop-opacity:0.3069"/>
	<stop  offset="0.895" style="stop-color:#F0F0F0;stop-opacity:0.105"/>
	<stop  offset="1" style="stop-color:#FFFFFF;stop-opacity:0"/>
</linearGradient>
<rect y="0.3" class="st1" width="1920" height="1079.7"/>
<path class="st2" d="M312,0.3c0,0,272.1,495.5,967.7,658.8s432,421,432,421H0V0L312,0.3z"/>
<linearGradient id="SVGID_2_" gradientUnits="userSpaceOnUse" x1="0" y1="540" x2="1760.7476" y2="540">
	<stop  offset="0" style="stop-color:#231F20"/>
	<stop  offset="0.1224" style="stop-color:#272324;stop-opacity:0.8776"/>
	<stop  offset="0.2555" style="stop-color:#343131;stop-opacity:0.7445"/>
	<stop  offset="0.3938" style="stop-color:#4A4647;stop-opacity:0.6062"/>
	<stop  offset="0.5356" style="stop-color:#686565;stop-opacity:0.4644"/>
	<stop  offset="0.6801" style="stop-color:#8E8C8D;stop-opacity:0.3199"/>
	<stop  offset="0.827" style="stop-color:#BDBCBC;stop-opacity:0.173"/>
	<stop  offset="0.973" style="stop-color:#F4F4F4;stop-opacity:2.696115e-02"/>
	<stop  offset="1" style="stop-color:#FFFFFF;stop-opacity:0"/>
</linearGradient>
<path class="st3" d="M1711.7,1080H0V0l312,0.3c0,0,28.8,52.5,91.7,128.9c0.6,0.7,1.2,1.5,1.8,2.2c34.9,42.3,80.2,91.7,136.6,143.6
	c54.2,49.8,118.7,101.8,194.3,151.9c140.9,93.3,320.4,179.8,543.3,232.1c178.2,41.8,293.4,89.8,366.3,138.1c0.9,0.6,1.8,1.2,2.7,1.8
	v0c56.4,38,86.9,76,101.2,111.4c0.2,0.5,0.4,1,0.6,1.5C1787.7,1005.8,1711.7,1080,1711.7,1080z"/>
<g class="st4">
	<path class="st5" d="M124,53.2c0,0.4,0,0.8-0.1,1.2c0,0,0,0,0,0h-11.6c0,0,0,0,0,0c0-0.8-0.7-1.5-1.5-1.5c-0.8,0-1.4,0.7-1.4,1.5
		v20.9c0,5-2.8,9.4-7,11.6c-1.8,1-3.9,1.5-6.1,1.5c-1.4,0-2.8-0.2-4-0.6c0,0,0,0,0,0c1.8-1.5,2.8-3.4,2-5.8
		c-0.9-2.5,0.2-4.1,1.2-4.7c0.4-0.3,0.8-0.4,1.2-0.5c0.4-0.1,0.7-0.3,0.9-0.7c0.1-0.2,0.2-0.5,0.2-0.8V48.6c0-3.2,2.6-5.8,5.8-5.8h0
		c0.3,0,0.5,0,0.8,0.1c0.2,0,0.4,0.1,0.6,0.1c0,0,0.1,0,0.1,0c0,0,0.1,0,0.1,0c0,0,0.1,0,0.1,0c0.1,0,0.1,0,0.2,0.1c0,0,0.1,0,0.1,0
		c0,0,0.1,0,0.1,0c0.1,0,0.2,0.1,0.3,0.1c0.1,0,0.1,0.1,0.2,0.1c0,0,0.1,0,0.1,0.1c0,0,0.1,0,0.1,0c0.5,0.3,1,0.7,1.4,1.1h0
		c1.7-1.2,3.8-1.9,6-1.9C119.5,42.8,124.1,47.5,124,53.2L124,53.2z"/>
	<path class="st5" d="M109.4,48.5c0,3.2-2.6,5.8-5.8,5.8h-8.8v20.9c0,0.8,0.7,1.5,1.5,1.5c0.1,0,0.2,0,0.3,0
		c-0.4,0.1-0.8,0.3-1.2,0.5c-1,0.7-2.1,2.3-1.2,4.7c0.8,2.4-0.1,4.3-2,5.8c0,0,0,0,0,0c0,0,0,0,0,0c0,0-0.1,0-0.1,0
		c-4.4-1.5-7.8-5.3-8.7-10c-0.1-0.8-0.2-1.6-0.2-2.5V54.4h-8.3c-3.2,0-5.8-2.6-5.8-5.8c0-3.2,2.6-5.8,5.8-5.8h8.3v-6.7
		c0-3.2,2.6-5.8,5.8-5.8s5.8,2.6,5.8,5.8v6.7h8.8c0.2,0,0.5,0,0.7,0c0,0,0,0,0,0c0.2,0,0.4,0.1,0.6,0.1c0,0,0,0,0,0c0,0,0.1,0,0.1,0
		c0,0,0,0,0,0c0,0,0,0,0,0c0,0,0.1,0,0.1,0c0,0,0,0,0.1,0c0,0,0.1,0,0.1,0c0,0,0,0,0,0c0,0,0,0,0,0c0,0,0.1,0,0.1,0c0,0,0,0,0,0
		c0,0,0,0,0.1,0c0,0,0,0,0.1,0c0,0,0,0,0,0c0,0,0,0,0,0c0,0,0,0,0.1,0c0,0,0,0,0,0c0.1,0,0.2,0.1,0.3,0.1c0.1,0.1,0.3,0.1,0.4,0.2
		c0.2,0.1,0.4,0.2,0.5,0.4c0,0,0,0,0,0c0,0,0.1,0.1,0.1,0.1c0,0,0,0,0,0c0,0,0.1,0.1,0.1,0.1c0,0,0.1,0,0.1,0.1
		c0.1,0.1,0.1,0.1,0.2,0.2c0,0,0.1,0.1,0.1,0.1c0,0,0.1,0.1,0.1,0.1C108.8,45.6,109.4,47,109.4,48.5z"/>
	<path class="st5" d="M124,53.2c0,0.4,0,0.8-0.1,1.2c0,0,0,0,0,0h-11.6c0,0,0,0,0,0c0-0.8-0.7-1.5-1.5-1.5c-0.8,0-1.4,0.7-1.4,1.5
		v20.9c0,5-2.8,9.4-7,11.6c-1.8,1-3.9,1.5-6.1,1.5c-1.4,0-2.8-0.2-4-0.6c0,0,0,0,0,0c1.8-1.5,2.8-3.4,2-5.8
		c-0.9-2.5,0.2-4.1,1.2-4.7c0.4-0.3,0.8-0.4,1.2-0.5c0.4-0.1,0.7-0.3,0.9-0.7c0.1-0.2,0.2-0.5,0.2-0.8V48.6c0-3.2,2.6-5.8,5.8-5.8h0
		c0.3,0,0.5,0,0.8,0.1c0.2,0,0.4,0.1,0.6,0.1c0,0,0.1,0,0.1,0c0,0,0.1,0,0.1,0c0,0,0.1,0,0.1,0c0.1,0,0.1,0,0.2,0.1c0,0,0.1,0,0.1,0
		c0,0,0.1,0,0.1,0c0.1,0,0.2,0.1,0.3,0.1c0.1,0,0.1,0.1,0.2,0.1c0,0,0.1,0,0.1,0.1c0,0,0.1,0,0.1,0c0.5,0.3,1,0.7,1.4,1.1h0
		c1.7-1.2,3.8-1.9,6-1.9C119.5,42.8,124.1,47.5,124,53.2L124,53.2z"/>
	<path class="st6" d="M109.4,48.5c0,3.2-2.6,5.8-5.8,5.8h-8.8v20.9c0,0.8,0.7,1.5,1.5,1.5c0.1,0,0.2,0,0.3,0
		c-0.4,0.1-0.8,0.3-1.2,0.5c-1,0.7-2.1,2.3-1.2,4.7c0.8,2.4-0.1,4.3-2,5.8c0,0,0,0,0,0c0,0,0,0,0,0c0,0-0.1,0-0.1,0
		c-4.4-1.5-7.8-5.3-8.7-10c-0.1-0.8-0.2-1.6-0.2-2.5V54.4h-8.3c-3.2,0-5.8-2.6-5.8-5.8c0-3.2,2.6-5.8,5.8-5.8h8.3v-6.7
		c0-3.2,2.6-5.8,5.8-5.8s5.8,2.6,5.8,5.8v6.7h8.8c0.2,0,0.5,0,0.7,0c0,0,0,0,0,0c0.2,0,0.4,0.1,0.6,0.1c0,0,0,0,0,0c0,0,0.1,0,0.1,0
		c0,0,0,0,0,0c0,0,0,0,0,0c0,0,0.1,0,0.1,0c0,0,0,0,0.1,0c0,0,0.1,0,0.1,0c0,0,0,0,0,0c0,0,0,0,0,0c0,0,0.1,0,0.1,0c0,0,0,0,0,0
		c0,0,0,0,0.1,0c0,0,0,0,0.1,0c0,0,0,0,0,0c0,0,0,0,0,0c0,0,0,0,0.1,0c0,0,0,0,0,0c0.1,0,0.2,0.1,0.3,0.1c0.1,0.1,0.3,0.1,0.4,0.2
		c0.2,0.1,0.4,0.2,0.5,0.4c0,0,0,0,0,0c0,0,0.1,0.1,0.1,0.1c0,0,0,0,0,0c0,0,0.1,0.1,0.1,0.1c0,0,0.1,0,0.1,0.1
		c0.1,0.1,0.1,0.1,0.2,0.2c0,0,0.1,0.1,0.1,0.1c0,0,0.1,0.1,0.1,0.1C108.8,45.6,109.4,47,109.4,48.5z"/>
</g>
<path class="st7" d="M1427.7,0.3c-24.6,12.3-48.7,24.4-72.2,36.5c-0.3,0.1-0.6,0.3-0.8,0.4C1069.8,183.4,871.5,313.1,736.5,427
	C587.7,552.4,515.6,658.6,489,746.7c-0.3,1-0.6,2-0.9,3c-21.9,75-10.7,136.7,14,185.6c0.3,0.6,0.6,1.3,1,1.9
	C553,1033.9,655.5,1080,655.5,1080H0V530.7c50.5-31,109.3-57.5,177.6-77.5c59.9-17.5,113.9-37.5,162.4-59.1
	c81.9-36.5,148.4-77.6,202.2-119.1C717,140,757.6,0.3,757.6,0.3H1427.7z"/>
<linearGradient id="SVGID_3_" gradientUnits="userSpaceOnUse" x1="0" y1="540.145" x2="1427.71" y2="540.145">
	<stop  offset="0" style="stop-color:#231F20"/>
	<stop  offset="0.1103" style="stop-color:#282425;stop-opacity:0.8897"/>
	<stop  offset="0.2437" style="stop-color:#373334;stop-opacity:0.7563"/>
	<stop  offset="0.389" style="stop-color:#4F4B4C;stop-opacity:0.611"/>
	<stop  offset="0.5428" style="stop-color:#706E6E;stop-opacity:0.4572"/>
	<stop  offset="0.7032" style="stop-color:#9B999A;stop-opacity:0.2968"/>
	<stop  offset="0.8667" style="stop-color:#CFCECE;stop-opacity:0.1333"/>
	<stop  offset="1" style="stop-color:#FFFFFF;stop-opacity:0"/>
</linearGradient>
<path class="st8" d="M655.5,1080H0V530.7c50.5-31,109.3-57.5,177.6-77.5c489.8-142.9,580-453,580-453h670.1
	C-79.2,749.8,655.5,1080,655.5,1080z"/>
<g>
	<path class="st9" d="M1527.1,251v160c-57.7,16.7-114.6,52.4-88.6,128.7c2.8,8.3,5,16,6.5,23c17.5,81.3-45.5,86.2-82.5,82.6
		c-2.3-0.2-4.5-0.5-6.5-0.8c-1.1-0.1-2.1-0.3-3.1-0.4c-0.5-0.1-1.1-0.2-1.6-0.3c-1.1-0.2-2.2-0.4-3.2-0.5c-2.3-0.4-4.3-0.8-5.9-1.1
		c-0.3-0.1-0.5-0.1-0.8-0.2c-0.5-0.1-1-0.2-1.4-0.3c-0.2,0-0.3-0.1-0.5-0.1c-1.5-0.3-2.2-0.5-2.2-0.5s-0.5-0.2-1.5-0.6
		c0,0-0.1,0-0.1,0c-1.4-0.5-3.7-1.4-6.8-2.3c-0.3-0.1-0.7-0.2-1-0.3c-0.8-0.2-1.6-0.5-2.5-0.7c-0.2-0.1-0.4-0.1-0.6-0.2
		c-0.4-0.1-0.7-0.2-1.1-0.3c-0.5-0.1-0.9-0.3-1.4-0.4c-3.7-0.9-7.9-1.9-12.6-2.7c-0.4-0.1-0.8-0.1-1.2-0.2c-0.1,0-0.2,0-0.3-0.1
		c-0.3,0-0.6-0.1-1-0.1c-2.9-0.4-6-0.8-9.2-1c-0.7-0.1-1.3-0.1-2-0.2c-0.6,0-1.2-0.1-1.9-0.1c-0.5,0-1,0-1.6-0.1c-0.4,0-0.9,0-1.3,0
		c-4.1-0.1-8.3-0.1-12.7,0.3c-1.1,0.1-2.3,0.2-3.4,0.3c-1.9,0.2-3.7,0.4-5.6,0.7c-0.6,0.1-1.2,0.2-1.8,0.3c-0.9,0.1-1.7,0.3-2.6,0.5
		c-0.4,0.1-0.7,0.1-1.1,0.2c-1.3,0.3-2.7,0.6-4,0.9c-0.5,0.1-1,0.3-1.5,0.4c-1.2,0.3-2.4,0.7-3.6,1c-0.1,0-0.2,0.1-0.3,0.1
		c-0.5,0.2-1.1,0.3-1.6,0.5c-0.6,0.2-1.2,0.4-1.9,0.6c-0.6,0.2-1.2,0.4-1.8,0.6c-0.1,0-0.2,0.1-0.3,0.1c-0.5,0.2-0.9,0.3-1.4,0.5
		c-0.5,0.2-1,0.4-1.5,0.6c-0.5,0.2-1.1,0.5-1.6,0.7c-0.1,0-0.2,0.1-0.3,0.1c-0.5,0.2-1,0.5-1.5,0.7c-0.1,0-0.2,0.1-0.3,0.1
		c-0.4,0.2-0.8,0.4-1.3,0.6c-0.2,0.1-0.5,0.2-0.7,0.4c-0.5,0.3-1,0.5-1.5,0.8c-0.4,0.2-0.8,0.4-1.3,0.7c-0.3,0.2-0.7,0.4-1,0.6
		c-0.2,0.1-0.5,0.3-0.7,0.4c-0.4,0.2-0.8,0.5-1.3,0.7c-0.1,0.1-0.2,0.1-0.3,0.2c-0.4,0.3-0.8,0.5-1.2,0.7c-0.5,0.3-1,0.6-1.5,0.9
		c-0.5,0.3-1.1,0.7-1.6,1.1c-0.1,0-0.1,0.1-0.2,0.1c-28.9,19.5-62.7,25.3-89.1,13.9c-0.6-0.2-1.1-0.5-1.7-0.7
		c-0.6-0.3-1.2-0.5-1.8-0.8c-1.1-0.5-2.3-1.1-3.4-1.7c-0.4-0.2-0.8-0.4-1.1-0.6c-0.7-0.4-1.5-0.8-2.2-1.2c-0.7-0.4-1.5-0.9-2.2-1.3
		c-2.8-1.7-5.6-3.7-8.4-5.8c-0.4-0.3-0.8-0.6-1.2-0.9c-0.5-0.4-1-0.8-1.6-1.3c-0.6-0.5-1.3-1-1.9-1.6c-1.2-1-2.3-2-3.5-3.1
		c-0.4-0.4-0.8-0.7-1.2-1.1c-1.9-1.8-3.8-3.8-5.7-5.8c-0.4-0.4-0.8-0.8-1.2-1.3c-2.6-2.8-5.1-5.8-7.7-9.1c-0.3-0.4-0.7-0.8-1-1.3
		c-4-5.1-8.1-10.8-12.2-17.2c-0.4-0.6-0.8-1.2-1.1-1.7c-2.2-3.3-4.3-6.8-6.5-10.4c-0.4-0.7-0.8-1.4-1.3-2.1
		c-1.3-2.1-2.6-4.3-3.8-6.5c-44-76.1-4-74.4,56.9-73.8c60.9,0.6,104.3-74.6,73.1-160.2c-31.3-85.6,65.4-105.5,187.7-83.7
		C1456.3,281.3,1501.1,266.4,1527.1,251z"/>
	<linearGradient id="SVGID_4_" gradientUnits="userSpaceOnUse" x1="1051.165" y1="459.7947" x2="1527.1473" y2="459.7947">
		<stop  offset="0" style="stop-color:#231F20"/>
		<stop  offset="0.1103" style="stop-color:#282425;stop-opacity:0.8897"/>
		<stop  offset="0.2437" style="stop-color:#373334;stop-opacity:0.7563"/>
		<stop  offset="0.389" style="stop-color:#4F4B4C;stop-opacity:0.611"/>
		<stop  offset="0.5428" style="stop-color:#706E6E;stop-opacity:0.4572"/>
		<stop  offset="0.7032" style="stop-color:#9B999A;stop-opacity:0.2968"/>
		<stop  offset="0.8667" style="stop-color:#CFCECE;stop-opacity:0.1333"/>
		<stop  offset="1" style="stop-color:#FFFFFF;stop-opacity:0"/>
	</linearGradient>
	<path class="st10" d="M1527.1,251v160c-57.7,16.7-114.6,52.4-88.6,128.7c2.8,8.3,5,16,6.5,23c17.5,81.3-45.5,86.2-82.5,82.6
		c-2.3-0.2-4.5-0.5-6.5-0.8c-1.1-0.1-2.1-0.3-3.1-0.4c-0.5-0.1-1.1-0.2-1.6-0.3c-1.1-0.2-2.2-0.3-3.2-0.5c-2.3-0.4-4.3-0.8-5.9-1.1
		c-0.3-0.1-0.5-0.1-0.8-0.2c-0.5-0.1-1-0.2-1.4-0.3c-0.2,0-0.3-0.1-0.5-0.1c-1.3-0.3-2.6-0.7-3.8-1.2c0,0-0.1,0-0.1,0
		c-1.4-0.5-3.7-1.4-6.8-2.3c-0.3-0.1-0.7-0.2-1-0.3c-0.8-0.2-1.6-0.5-2.5-0.7c-0.2-0.1-0.4-0.1-0.6-0.2c-0.4-0.1-0.7-0.2-1.1-0.3
		c-0.5-0.1-0.9-0.3-1.4-0.4c-3.7-0.9-7.9-1.9-12.6-2.7c-0.4-0.1-0.8-0.1-1.2-0.2c-0.1,0-0.2,0-0.3-0.1c-0.3,0-0.6-0.1-1-0.1
		c-2.9-0.4-6-0.8-9.2-1c-0.7-0.1-1.3-0.1-2-0.2c-0.6,0-1.2-0.1-1.9-0.1c-0.5,0-1,0-1.6-0.1c-0.4,0-0.9,0-1.3,0
		c-4.1-0.1-8.3-0.1-12.7,0.3c-1.1,0.1-2.3,0.2-3.4,0.3c-1.9,0.2-3.7,0.4-5.6,0.7c-0.6,0.1-1.2,0.2-1.8,0.3c-0.9,0.1-1.7,0.3-2.6,0.5
		c-0.4,0.1-0.7,0.1-1.1,0.2c-1.3,0.3-2.7,0.6-4,0.9c-0.5,0.1-1,0.3-1.5,0.4c-1.2,0.3-2.4,0.7-3.6,1c-0.1,0-0.2,0.1-0.3,0.1
		c-0.5,0.2-1.1,0.3-1.6,0.5c-0.6,0.2-1.2,0.4-1.9,0.6c-0.6,0.2-1.2,0.4-1.8,0.6c-0.1,0-0.2,0.1-0.3,0.1c-0.5,0.2-0.9,0.3-1.4,0.5
		c-0.5,0.2-1,0.4-1.5,0.6c-0.5,0.2-1.1,0.5-1.6,0.7c-0.1,0-0.2,0.1-0.3,0.1c-0.5,0.2-1,0.5-1.5,0.7c-0.1,0-0.2,0.1-0.3,0.1
		c-0.4,0.2-0.8,0.4-1.3,0.6c-0.2,0.1-0.5,0.2-0.7,0.4c-0.5,0.3-1,0.5-1.5,0.8c-0.4,0.2-0.8,0.4-1.3,0.7c-0.3,0.2-0.7,0.4-1,0.6
		c-0.2,0.1-0.5,0.3-0.7,0.4c-0.4,0.2-0.8,0.5-1.3,0.7c-0.1,0.1-0.2,0.1-0.3,0.2c-0.4,0.2-0.8,0.5-1.2,0.7c-0.5,0.3-1,0.6-1.5,0.9
		c-0.5,0.3-1.1,0.7-1.6,1.1c-0.1,0-0.1,0.1-0.2,0.1c-0.3,0.2-0.5,0.3-0.8,0.5c-26.4,18.2-57.4,24.6-82.5,15.7
		c-2-0.7-3.9-1.5-5.9-2.3c-0.6-0.2-1.1-0.5-1.7-0.7c-0.6-0.3-1.2-0.5-1.8-0.8c-1.1-0.5-2.3-1.1-3.4-1.7c-0.4-0.2-0.8-0.4-1.1-0.6
		c-0.7-0.4-1.5-0.8-2.2-1.2c-0.7-0.4-1.5-0.9-2.2-1.3c-2.8-1.7-5.6-3.7-8.4-5.8c-0.4-0.3-0.8-0.6-1.2-0.9c-0.5-0.4-1-0.8-1.6-1.3
		c-0.6-0.5-1.3-1-1.9-1.6c-1.2-1-2.3-2-3.5-3.1c-0.4-0.4-0.8-0.7-1.2-1.1c-1.9-1.8-3.8-3.8-5.7-5.8c-0.4-0.4-0.8-0.8-1.2-1.3
		c-2.6-2.8-5.1-5.8-7.7-9.1c-0.3-0.4-0.7-0.8-1-1.3c-4-5.1-8.1-10.8-12.2-17.2c-0.4-0.6-0.8-1.2-1.1-1.7c-2.2-3.3-4.3-6.8-6.5-10.4
		c-0.4-0.7-0.8-1.4-1.3-2.1c-1.3-2.1-2.6-4.3-3.8-6.5c-44-76.1-4-74.4,56.9-73.8c60.9,0.6,104.3-74.6,73.1-160.2
		c-31.3-85.6,65.4-105.5,187.7-83.7C1456.3,281.3,1501.1,266.4,1527.1,251z"/>
</g>
<text transform="matrix(1 0 0 1 704.4246 593.4392)" class="st11 st12 st13 st14">relive</text>
<g>
	<path class="st15" d="M737.1,394.2c-2.7,60.4-30.7,122.9-89.3,167.9c-15.5,11.9-28.6,25.2-39.6,39.5c-0.4,0.5-0.8,1-1.2,1.6
		c-102.3,136-13.9,364.1,24.8,448.4c0.1,0.3,0.2,0.5,0.4,0.8c6,13,10.8,22.5,13.4,27.6H397.1V261.1c12.6-8.8,25-16.6,37.1-23.4
		c0.2-0.1,0.3-0.2,0.5-0.3c6.4-3.6,12.7-6.9,18.9-10c0,0,0,0,0,0c14.2-7,28-12.6,41.3-17C647.4,160.6,742.6,273.4,737.1,394.2z"/>
	<linearGradient id="SVGID_5_" gradientUnits="userSpaceOnUse" x1="567.1919" y1="1080" x2="567.1919" y2="198.3694">
		<stop  offset="0" style="stop-color:#231F20"/>
		<stop  offset="0.1103" style="stop-color:#282425;stop-opacity:0.8897"/>
		<stop  offset="0.2437" style="stop-color:#373334;stop-opacity:0.7563"/>
		<stop  offset="0.389" style="stop-color:#4F4B4C;stop-opacity:0.611"/>
		<stop  offset="0.5428" style="stop-color:#706E6E;stop-opacity:0.4572"/>
		<stop  offset="0.7032" style="stop-color:#9B999A;stop-opacity:0.2968"/>
		<stop  offset="0.8667" style="stop-color:#CFCECE;stop-opacity:0.1333"/>
		<stop  offset="1" style="stop-color:#FFFFFF;stop-opacity:0"/>
	</linearGradient>
	<path class="st16" d="M737.1,394.2c-2.7,60.4-30.7,122.9-89.3,167.9c-15.5,11.9-28.6,25.2-39.6,39.5c-0.4,0.5-0.8,1-1.2,1.6
		c-102.3,136-13.9,364.1,24.8,448.4c0.1,0.3,0.2,0.5,0.4,0.8c6,13,10.8,22.5,13.4,27.6H397.1V261.1c12.6-8.8,25-16.6,37.1-23.4
		c0.2-0.1,0.3-0.2,0.5-0.3c6.4-3.6,12.7-6.9,18.9-10c0,0,0,0,0,0c14.2-7,28-12.6,41.3-17C647.4,160.6,742.6,273.4,737.1,394.2z"/>
</g>
<path class="st17" d="M1692.2,1080h-2.1c-5.3-13.7-10.1-27.7-14.4-41.8c-4.7-15.4-8.8-31-12.2-46.8c-0.9-3.9-1.7-7.9-2.5-11.8
	l-1.2-5.9c-0.4-2-0.7-4-1.1-5.9c-0.7-4-1.5-7.9-2.1-11.9l-1.9-12c-0.3-2-0.6-4-0.9-6l-0.8-6c-0.1-1-0.3-2-0.4-3
	c-0.1-0.6-0.2-1.2-0.3-1.9c-0.3-2.4-0.6-4.7-0.9-7.1l-1.3-12l-1.1-12l-0.5-6l-0.4-6l-0.8-12.1l-0.6-12.1l-0.3-6l-0.2-6l-0.3-12.1
	l-0.1-12.1c-0.1-8.1,0-16.1,0.1-24.2c0-0.7,0-1.4,0-2c0-3.3,0.2-6.7,0.3-10l0.4-12.1c0.4-8,0.7-16.1,1.2-24.1
	c0.5-8,1.1-16.1,1.6-24.1c0.5-8,1.1-16,1.2-24.1c0.8-22.4,0.6-44.8-0.7-67.1c-0.5-9.7-1.3-19.5-2.2-29.2c-3.1-32-8.3-63.8-15.4-95.1
	c-0.8-3.9-1.8-7.8-2.8-11.7l-2.9-11.7l-3.2-11.6l-1.6-5.8l-1.7-5.8l-3.4-11.5c-1.2-3.8-2.5-7.6-3.7-11.5c-2.4-7.7-5.1-15.2-7.8-22.8
	c-0.7-2.2-1.6-4.4-2.4-6.5c-0.6-1.6-1.2-3.2-1.8-4.8c-1.4-3.8-2.8-7.5-4.3-11.3c-3-7.4-5.9-14.9-9.1-22.3c-6.2-14.8-13-29.4-20-43.9
	c-14.2-28.8-29.7-57-46.6-84.4c-33.8-54.7-72.7-106.3-115.3-154.4c-16.5-18.6-33.5-36.6-51-54.2c-5.2-5.2-10.5-10.4-15.8-15.5
	c-7.5-7.3-15.2-14.4-23-21.4h0.7c7.7,6.9,15.3,13.8,22.7,20.9c5.4,5.1,10.8,10.3,16.1,15.6c17.6,17.3,34.7,35.2,51.3,53.6
	c42.9,48,82.1,99.5,116.2,154.2c8.6,13.6,16.7,27.6,24.6,41.6l5.8,10.6c1.9,3.5,3.8,7.1,5.7,10.7c3.8,7.1,7.3,14.4,11,21.5
	c7,14.5,13.9,29.1,20.1,44c3.2,7.4,6.2,14.9,9.2,22.4c1.2,3,2.4,6.2,3.5,9.2c0.3,0.7,0.5,1.4,0.8,2.1c1.4,3.8,2.9,7.5,4.2,11.3
	c2.7,7.6,5.4,15.2,7.8,22.9c1.2,3.8,2.5,7.7,3.7,11.5l3.5,11.6l1.7,5.8l1.6,5.8l3.2,11.7l2.9,11.7c1,3.9,2,7.8,2.8,11.8
	c7.2,31.5,12.4,63.3,15.6,95.4c0.9,9.5,1.6,19.1,2.1,28.7c1.3,22.6,1.5,45.3,0.6,68c-0.2,8.1-0.8,16.1-1.3,24.2
	c-0.5,8-1.1,16-1.6,24.1c-0.5,8-0.8,16.1-1.2,24.1l-0.4,12.1c-0.1,3.9-0.3,7.8-0.3,11.8v0.3c-0.7,42.6,1.1,85.2,6.3,127.5
	c0.1,0.6,0.2,1.2,0.2,1.8c2.6,20.9,6.1,41.7,10.6,62.3c3.3,15.7,7.4,31.3,12,46.7C1682.1,1051.9,1686.9,1066.1,1692.2,1080z"/>
<path class="st17" d="M624.5,0.3c-1,1.1-1.9,2.2-2.9,3.3c-12.3,13.9-25.7,26.9-40,38.8c-14.3,11.9-29.5,22.7-45.3,32.5
	c-15.8,9.9-32.2,18.6-49.1,26.5l-6.3,2.9l-3.2,1.5l-3.2,1.4l-12.9,5.4c-4.3,1.7-8.7,3.3-13,5l-6.5,2.4l-6.6,2.2
	c-4.4,1.5-8.8,3-13.2,4.4l-13.4,3.9c-1.1,0.3-2.2,0.7-3.3,1c-1.1,0.3-2.2,0.7-3.4,1l-6.8,1.7l-13.5,3.5l-13.6,3l-6.8,1.5
	c-2.3,0.5-4.6,0.9-6.8,1.3c-9.2,1.6-18.3,3.5-27.5,4.7l-27.5,4c-4.6,0.7-9.2,1.3-13.7,2.1l-13.7,2.5c-9.1,1.5-18.2,3.6-27.2,5.5
	c-4.6,0.9-9,2.1-13.5,3.2l-13.5,3.3l-13.4,3.7c-4.5,1.3-8.9,2.4-13.3,3.8c-8.8,2.8-17.7,5.4-26.5,8.5c-4.4,1.5-8.8,2.9-13.1,4.5
	l-13,4.8c-2.2,0.8-4.3,1.6-6.5,2.4l-6.4,2.6l-12.9,5.2l-12.8,5.5c-0.7,0.3-1.4,0.6-2.1,0.9c-1.4,0.6-2.9,1.2-4.3,1.9l-6.3,2.9
	c-4.2,1.9-8.4,3.8-12.6,5.8l-12.5,6.1c-16.6,8.3-33,16.9-49,26.3c-4.4,2.5-8.8,5.2-13.1,7.8v-2.1c4-2.5,8.1-4.9,12.2-7.3
	c8.2-4.9,16.5-9.5,24.9-14.1c0.2-0.1,0.3-0.2,0.5-0.3c6.3-3.4,12.6-6.7,18.9-10c0,0,0,0,0,0c1.5-0.8,3.1-1.6,4.6-2.4
	c16.6-8.4,33.5-16.1,50.6-23.4l12.9-5.2l6.5-2.6c2.2-0.9,4.3-1.6,6.5-2.5l13.1-4.9c4.4-1.6,8.8-3,13.2-4.6
	c8.8-3.1,17.7-5.8,26.5-8.5c4.4-1.4,8.9-2.6,13.4-3.9l13.4-3.7l13.5-3.3c4.5-1.1,9-2.3,13.6-3.2l13.6-2.9c4.5-1,9.1-1.8,13.7-2.6
	l13.7-2.5c4.6-0.8,9.2-1.4,13.8-2l27.5-4c9.2-1.2,18.3-3,27.4-4.6c2.3-0.4,4.6-0.8,6.8-1.3l6.8-1.5l13.6-2.9l13.5-3.4l6.7-1.7
	c0.7-0.2,1.5-0.4,2.2-0.6c1.5-0.4,3-0.9,4.5-1.3l13.3-3.9c4.4-1.4,8.8-2.9,13.2-4.3l6.6-2.2l6.5-2.4c4.3-1.6,8.7-3.2,13-4.9
	l12.8-5.3l3.2-1.3l3.2-1.4l6.3-2.9c16.8-7.7,33.3-16.3,49-26c15.8-9.7,31-20.4,45.3-32.1c14.4-11.6,27.9-24.4,40.3-38.2
	c0.8-0.9,1.7-1.9,2.5-2.8H624.5z"/>
<path class="st17" d="M737.3,1080h-3.7c-0.6-0.6-1.3-1.2-1.9-1.7c-5.3-4.7-10.4-9.5-15.5-14.3c-5.1-4.9-10.2-9.7-15.2-14.7
	c-5-4.9-9.9-10-14.8-15c-4.8-5.1-9.7-10.2-14.4-15.4c-9.5-10.4-18.7-21-27.6-31.9c-17.8-21.8-34.3-44.7-49-68.8
	c-1.6-2.7-3.2-5.4-4.8-8.1c-0.4-0.7-0.8-1.4-1.3-2.2c-5.1-8.7-10-17.6-14.5-26.6c-1.6-3.1-3.1-6.3-4.6-9.5c-0.8-1.6-1.6-3.2-2.3-4.8
	l-2.2-4.8c-2.9-6.5-5.8-12.8-8.7-19.2c-6.2-12.5-13.1-24.7-20.9-36.4L530,798c-2-2.8-4.2-5.6-6.3-8.4c-2-2.8-4.3-5.5-6.5-8.2
	l-3.3-4.1c-1.1-1.4-2.3-2.7-3.4-4c-2.3-2.6-4.6-5.3-7-7.9l-7.2-7.6c-2.4-2.5-5-4.9-7.4-7.4c-0.2-0.3-0.5-0.5-0.7-0.7
	c-2.2-2.2-4.6-4.4-6.9-6.5c-5.1-4.8-10.4-9.3-15.7-13.9l-8.1-6.6c-2.7-2.2-5.5-4.3-8.3-6.4c-22.3-17-46.1-32-70.7-45.4
	c-12.3-6.7-24.9-13-37.6-18.9c-12.7-5.9-25.6-11.6-38.6-16.8c-30.2-12.2-61-22.8-92.3-31.9c-22.6-6.6-45.5-12.5-68.5-17.8
	c-27.4-6.3-55-11.7-82.7-16.2c-13.9-2.2-27.8-4.3-41.7-6c-5.7-0.7-11.4-1.4-17.1-2.1v-0.2c5.7,0.6,11.5,1.2,17.2,1.9
	c14,1.7,27.9,3.6,41.8,5.7c27.8,4.3,55.4,9.4,82.9,15.5c23.3,5.2,46.4,11,69.3,17.6c4.1,1.2,8.2,2.4,12.3,3.6
	c13.5,4.1,26.9,8.4,40.1,13c13.3,4.6,26.5,9.5,39.5,14.7c13.1,5.2,26,10.8,38.8,16.7c12.8,5.9,25.3,12.3,37.7,19
	c24.7,13.4,48.7,28.4,71.1,45.5c2.8,2.2,5.6,4.2,8.4,6.5l8.2,6.7c5.4,4.6,10.8,9.1,15.9,14c2,1.8,4,3.6,5.9,5.5
	c0.6,0.6,1.2,1.2,1.8,1.8c2.5,2.5,5,4.9,7.5,7.5l7.3,7.7c2.4,2.6,4.7,5.3,7,7.9c1.1,1.3,2.3,2.6,3.5,4l3.3,4.1
	c2.2,2.8,4.5,5.4,6.6,8.3c2.1,2.8,4.3,5.6,6.3,8.5l6,8.7c7.8,11.8,14.9,24,21.1,36.7c2.9,6.4,5.9,12.8,8.7,19.2l2.1,4.8
	c0.7,1.6,1.5,3.2,2.3,4.7c1.5,3.1,3,6.3,4.6,9.4c4.6,9.2,9.6,18.2,14.8,27.2c0.4,0.7,0.8,1.5,1.3,2.2c1.5,2.5,2.9,4.9,4.4,7.4
	c14.6,23.9,31,46.8,48.7,68.5C673.9,1019.2,704.7,1050.6,737.3,1080z"/>
<path class="st17" d="M1920,837.6v0.6c-12.4,8.7-25.3,16.7-38.6,23.9c-17.9,9.8-36.5,18.5-55.5,26c-19.1,7.5-38.5,13.8-58.2,19.3
	c-5.7,1.5-11.4,3-17.1,4.4c-31.3,7.7-63.2,13.1-95.2,16.8c-0.8,0.1-1.7,0.2-2.5,0.3c-1.9,0.2-3.8,0.4-5.8,0.6
	c-40.7,4.3-81.6,6.1-122.5,6c-40.9,0-81.8-1.8-122.6-4.8c-40.8-2.9-81.5-7.1-122.1-12c-81.2-9.9-162-22.8-242.5-36.7l-30.2-5.3
	c-10.1-1.6-20.1-3.4-30.2-4.6c-20.2-2.7-40.5-4.5-60.9-5.3c-2.5-0.1-5.1-0.3-7.6-0.3l-7.6-0.2c-5.1-0.1-10.2-0.3-15.3-0.2
	c-5.1,0-10.2,0-15.3,0l-15.3,0.4c-20.4,0.7-40.8,2.1-61.1,4c-20.3,2.1-40.5,4.7-60.7,7.9c-20.2,3.2-40.2,7-60.2,11.3
	c-20,4.2-39.8,9-59.6,14.2c-6.7,1.7-13.4,3.5-20.1,5.4c-1,0.3-1.9,0.5-2.9,0.8c-12,3.3-24,6.9-36,10.5
	c-17.2,5.2-34.2,10.8-51.2,16.6c-60.3,20.6-119.5,44.7-177.4,71.2c-30.5,14-60.7,28.6-90.5,44c-6.5,3.3-13,6.7-19.4,10.1
	c-10.8,5.7-21.6,11.6-32.4,17.5h-1c11-6.2,22-12.2,33.1-18.1c6.5-3.5,12.9-6.9,19.4-10.3c29.7-15.5,59.8-30.4,90.3-44.5
	c57.8-26.7,116.8-51,177.1-71.8c17.1-5.9,34.2-11.5,51.5-16.9c11.7-3.6,23.5-7.1,35.4-10.5c1-0.3,1.9-0.5,2.9-0.8
	c26.6-7.5,53.4-14.1,80.4-19.9c20-4.3,40.1-8.1,60.3-11.3c20.2-3.2,40.5-5.9,60.8-8c20.4-2,40.8-3.4,61.2-4.1l15.3-0.4
	c5.1-0.1,10.2,0,15.3-0.1c5.1-0.1,10.2,0.1,15.4,0.2l7.7,0.2c2.6,0,5.1,0.2,7.7,0.3c20.5,0.8,40.9,2.6,61.2,5.3
	c10.2,1.2,20.3,3,30.4,4.6l30.2,5.3c80.5,14,161.2,27,242.3,36.9c81.1,9.9,162.6,16.8,244.3,17.2c40.8,0.1,81.7-1.5,122.3-5.6
	c1.9-0.2,3.8-0.4,5.7-0.6c0.8-0.1,1.7-0.2,2.5-0.3c31.9-3.6,63.7-8.9,94.9-16.4c5.8-1.4,11.5-2.8,17.3-4.4
	c19.7-5.3,39.2-11.5,58.2-18.9c19-7.4,37.6-15.9,55.6-25.6C1894.4,854.3,1907.5,846.3,1920,837.6z"/>
</svg>
