<svg id="Layer_1" data-name="Layer 1" xmlns="http://www.w3.org/2000/svg" viewBox="0 0 1920 1080"><defs><style>.cls-1{fill:#fff;}</style></defs><path class="cls-1" d="M737.31,1080h-3.73l-1.92-1.72c-5.25-4.69-10.37-9.51-15.51-14.31s-10.19-9.7-15.16-14.68-9.91-10-14.83-15-9.71-10.19-14.43-15.42c-9.49-10.39-18.74-21-27.61-31.93a625.07,625.07,0,0,1-49-68.75q-2.45-4-4.83-8.11c-.43-.71-.85-1.43-1.26-2.15-5.09-8.74-10-17.6-14.5-26.64-1.61-3.13-3.09-6.33-4.64-9.5-.76-1.59-1.55-3.16-2.28-4.76l-2.16-4.83c-2.87-6.46-5.79-12.79-8.69-19.15a330.49,330.49,0,0,0-20.85-36.36L530,798c-2.05-2.83-4.18-5.61-6.26-8.42s-4.32-5.5-6.51-8.23l-3.3-4.07c-1.11-1.36-2.29-2.65-3.44-4-2.32-2.62-4.56-5.31-7-7.86l-7.2-7.64c-2.43-2.51-5-4.93-7.43-7.41l-.74-.74c-2.23-2.22-4.57-4.35-6.88-6.48-5.07-4.83-10.43-9.34-15.74-13.91l-8.14-6.64c-2.7-2.22-5.53-4.29-8.29-6.44a550.54,550.54,0,0,0-70.69-45.4q-18.51-10-37.55-19T302.28,635A967.6,967.6,0,0,0,210,603.15q-34-9.93-68.48-17.78-41.06-9.43-82.68-16.18-20.79-3.36-41.7-6.05Q8.57,562,0,561.08v-.22q8.6.89,17.19,1.91,20.92,2.49,41.77,5.7,41.67,6.4,82.88,15.48c23.27,5.2,46.41,11,69.33,17.63q6.15,1.77,12.29,3.62c13.46,4.07,26.86,8.36,40.14,13s26.47,9.54,39.54,14.74,26,10.82,38.76,16.7,25.34,12.28,37.73,18.95a551.86,551.86,0,0,1,71.11,45.5c2.78,2.16,5.63,4.23,8.35,6.47l8.2,6.66c5.35,4.6,10.75,9.13,15.87,14,2,1.82,4,3.62,5.89,5.49.6.58,1.2,1.17,1.79,1.77,2.5,2.49,5.05,4.92,7.5,7.45l7.27,7.69c2.41,2.57,4.68,5.27,7,7.91,1.15,1.33,2.35,2.62,3.46,4l3.34,4.1c2.21,2.75,4.51,5.43,6.58,8.29s4.25,5.63,6.33,8.48l6,8.72a330.84,330.84,0,0,1,21.1,36.68c2.94,6.42,5.89,12.85,8.71,19.24l2.14,4.79c.72,1.6,1.51,3.16,2.26,4.74,1.53,3.15,3,6.33,4.59,9.45,4.62,9.21,9.56,18.24,14.75,27.15.41.72.84,1.45,1.26,2.17,1.45,2.48,2.92,4.94,4.41,7.4a619.66,619.66,0,0,0,48.66,68.52C673.91,1019.24,704.68,1050.65,737.31,1080Z"/></svg>