<svg xmlns="http://www.w3.org/2000/svg" xmlns:xlink="http://www.w3.org/1999/xlink" viewBox="0 0 1920 1080"><defs><style>.cls-1{isolation:isolate;}.cls-2{fill:#ef5f3c;}.cls-3{mix-blend-mode:soft-light;fill:url(#linear-gradient);}</style><linearGradient id="linear-gradient" x1="170.12" y1="1080" x2="170.12" y2="198.37" gradientUnits="userSpaceOnUse"><stop offset="0" stop-color="#231f20"/><stop offset="0.33" stop-color="#434041" stop-opacity="0.85"/><stop offset="0.72" stop-color="#9f9e9e" stop-opacity="0.43"/><stop offset="1" stop-color="#fff" stop-opacity="0"/></linearGradient></defs><g class="cls-1"><g id="Layer_1" data-name="Layer 1"><path class="cls-2" d="M340,394.19c-2.74,60.43-30.68,122.86-89.25,167.91a214.49,214.49,0,0,0-39.59,39.48c-.39.52-.79,1-1.17,1.57-102.34,136-13.89,364.08,24.81,448.43l.36.79c6,13,10.76,22.54,13.37,27.63H0V261.06q18.93-13.2,37.07-23.38l.5-.27q9.57-5.4,18.91-10h0a317.52,317.52,0,0,1,41.35-17C250.34,160.57,345.51,273.39,340,394.19Z"/><path class="cls-3" d="M340,394.19c-2.74,60.43-30.68,122.86-89.25,167.91a214.49,214.49,0,0,0-39.59,39.48c-.39.52-.79,1-1.17,1.57-102.34,136-13.89,364.08,24.81,448.43l.36.79c6,13,10.76,22.54,13.37,27.63H0V261.06q18.93-13.2,37.07-23.38l.5-.27q9.57-5.4,18.91-10h0a317.52,317.52,0,0,1,41.35-17C250.34,160.57,345.51,273.39,340,394.19Z"/></g></g></svg>