<svg xmlns="http://www.w3.org/2000/svg" xmlns:xlink="http://www.w3.org/1999/xlink" viewBox="0 0 1920 1080"><defs><style>.cls-1{isolation:isolate;}.cls-2{fill:#530763;}.cls-3{mix-blend-mode:soft-light;fill:url(#linear-gradient);}</style><linearGradient id="linear-gradient" y1="540.14" x2="1427.71" y2="540.14" gradientUnits="userSpaceOnUse"><stop offset="0" stop-color="#231f20"/><stop offset="0.33" stop-color="#434041" stop-opacity="0.85"/><stop offset="0.72" stop-color="#9f9e9e" stop-opacity="0.43"/><stop offset="1" stop-color="#fff" stop-opacity="0"/></linearGradient></defs><g class="cls-1"><g id="Layer_1" data-name="Layer 1"><path class="cls-2" d="M1427.71.29q-37,18.39-72.17,36.45l-.84.43C1069.82,183.37,871.52,313.06,736.45,427,587.71,552.38,515.64,658.63,489.05,746.66c-.32,1-.62,2-.91,3-21.87,75-10.67,136.67,14,185.56.31.64.63,1.27,1,1.9C553.05,1033.93,655.55,1080,655.55,1080H0V530.71c50.54-31,109.31-57.53,177.63-77.46A1277.34,1277.34,0,0,0,340,394.19c81.91-36.47,148.39-77.58,202.16-119.13C717,140,757.6.29,757.6.29Z"/><path class="cls-3" d="M655.55,1080H0V530.71c50.54-31,109.31-57.53,177.63-77.46,489.83-142.86,580-453,580-453h670.11C-79.19,749.79,655.55,1080,655.55,1080Z"/></g></g></svg>