<svg xmlns="http://www.w3.org/2000/svg" xmlns:xlink="http://www.w3.org/1999/xlink" viewBox="0 0 1920 1080"><defs><style>.cls-1{isolation:isolate;}.cls-2{fill:#fcb814;}.cls-3{mix-blend-mode:soft-light;fill:url(#linear-gradient);}</style><linearGradient id="linear-gradient" x1="1444.02" y1="459.79" x2="1920" y2="459.79" gradientUnits="userSpaceOnUse"><stop offset="0" stop-color="#231f20"/><stop offset="0.33" stop-color="#434041" stop-opacity="0.85"/><stop offset="0.72" stop-color="#9f9e9e" stop-opacity="0.43"/><stop offset="1" stop-color="#fff" stop-opacity="0"/></linearGradient></defs><g class="cls-1"><g id="Layer_1" data-name="Layer 1"><path class="cls-2" d="M1920,251V411c-57.65,16.7-114.59,52.41-88.57,128.74a206.76,206.76,0,0,1,6.5,23c17.54,81.25-45.46,86.24-82.55,82.56-2.29-.23-4.48-.49-6.55-.77-1.07-.14-2.11-.29-3.11-.44l-1.6-.25-3.18-.53c-2.29-.4-4.28-.79-5.91-1.14l-.8-.17-1.4-.31-.49-.12c-1.45-.33-2.24-.54-2.24-.54s-.54-.23-1.55-.62l-.13-.05c-1.43-.54-3.74-1.37-6.76-2.31l-1-.31c-.79-.24-1.61-.48-2.48-.72l-.62-.17-1.11-.3-1.43-.38c-3.69-.94-8-1.88-12.64-2.66l-1.23-.2-.33,0-1-.15c-2.94-.43-6-.79-9.24-1q-1-.09-2-.15l-1.86-.11-1.55-.07-1.29,0a126.26,126.26,0,0,0-12.68.25q-1.7.12-3.42.3c-1.86.2-3.74.43-5.62.72-.61.09-1.23.19-1.84.3l-2.59.48-1.1.22c-1.33.28-2.67.59-4,.92l-1.55.4c-1.21.32-2.42.67-3.64,1l-.34.11-1.61.52c-.62.2-1.24.41-1.86.64s-1.18.42-1.77.64l-.34.13c-.46.18-.92.35-1.38.54s-1,.4-1.52.62-1.09.46-1.64.71c-.1,0-.19.08-.29.12l-1.53.7-.31.14-1.25.6-.71.35-1.52.78-1.25.67c-.35.18-.69.37-1,.57s-.46.25-.68.39c-.43.23-.85.48-1.27.73l-.35.2-1.21.74c-.49.3-1,.6-1.46.92s-1.08.7-1.62,1.06l-.16.11c-28.9,19.51-62.67,25.26-89.14,13.92-.56-.23-1.12-.48-1.67-.73l-1.76-.82c-1.14-.53-2.26-1.1-3.38-1.69-.38-.2-.75-.39-1.12-.6-.74-.4-1.49-.81-2.22-1.24s-1.47-.87-2.21-1.32a99.37,99.37,0,0,1-8.36-5.78c-.39-.3-.78-.6-1.16-.91s-1-.82-1.55-1.25-1.26-1-1.89-1.58q-1.74-1.5-3.47-3.11l-1.15-1.08q-2.87-2.74-5.74-5.83c-.39-.41-.77-.83-1.15-1.25-2.56-2.82-5.13-5.85-7.72-9.12l-1-1.25c-4-5.13-8.06-10.83-12.23-17.17-.38-.57-.75-1.15-1.13-1.73q-3.22-5-6.54-10.45-.63-1-1.26-2.1-1.9-3.16-3.84-6.53c-44-76.13-4.05-74.41,56.86-73.82s104.35-74.59,73-160.17,65.43-105.45,187.74-83.67C1849.15,281.35,1894,266.4,1920,251Z"/><path class="cls-3" d="M1920,251V411c-57.65,16.7-114.59,52.41-88.57,128.74a206.76,206.76,0,0,1,6.5,23c17.54,81.25-45.46,86.24-82.55,82.56-2.29-.23-4.48-.49-6.55-.77-1.07-.14-2.11-.29-3.11-.44l-1.6-.25c-1.11-.17-2.18-.35-3.18-.53-2.29-.4-4.28-.79-5.91-1.14l-.8-.17-1.4-.31-.49-.12a30.22,30.22,0,0,1-3.79-1.16l-.13-.05c-1.43-.54-3.74-1.37-6.76-2.31l-1-.31c-.79-.24-1.61-.48-2.48-.72l-.62-.17-1.11-.3c-.47-.13-.94-.26-1.43-.38-3.69-.94-8-1.88-12.64-2.66l-1.23-.2-.33,0-1-.15c-2.94-.43-6-.79-9.24-1-.67-.06-1.33-.11-2-.15l-1.86-.11-1.55-.07-1.29,0a126.26,126.26,0,0,0-12.68.25q-1.7.12-3.42.3c-1.86.2-3.74.43-5.62.72-.62.09-1.23.19-1.84.3l-2.59.48-1.1.22c-1.33.28-2.67.59-4,.92l-1.55.4c-1.21.32-2.42.67-3.64,1l-.34.11-1.61.52c-.62.2-1.24.42-1.86.64l-1.77.64-.34.13q-.69.26-1.38.54c-.5.2-1,.4-1.52.62s-1.09.46-1.64.71c-.1,0-.19.08-.29.12l-1.53.7-.31.14-1.25.6-.71.35c-.51.25-1,.51-1.52.78l-1.25.67c-.35.18-.7.37-1,.57s-.46.25-.68.39c-.43.23-.85.47-1.27.73l-.35.2-1.21.74c-.49.29-1,.6-1.46.92s-1.08.7-1.62,1.06l-.16.11-.77.52c-26.41,18.22-57.35,24.65-82.51,15.7-2-.71-3.94-1.47-5.86-2.3-.56-.23-1.12-.48-1.67-.73l-1.76-.82c-1.14-.53-2.26-1.1-3.38-1.69-.38-.2-.75-.39-1.12-.6-.74-.4-1.49-.81-2.22-1.24s-1.48-.87-2.21-1.32a99.37,99.37,0,0,1-8.36-5.78c-.39-.3-.78-.6-1.16-.91s-1-.82-1.55-1.25-1.26-1-1.89-1.58q-1.74-1.5-3.47-3.11l-1.15-1.08q-2.87-2.74-5.74-5.83c-.39-.41-.77-.83-1.15-1.25-2.56-2.82-5.13-5.85-7.72-9.12l-1-1.25c-4-5.13-8.06-10.83-12.23-17.17-.38-.57-.75-1.15-1.13-1.73q-3.22-5-6.54-10.45-.63-1-1.26-2.1-1.9-3.16-3.84-6.53c-44-76.13-4.05-74.41,56.86-73.82s104.35-74.59,73-160.17,65.43-105.45,187.74-83.67C1849.15,281.35,1894,266.4,1920,251Z"/></g></g></svg>