<?xml version="1.0" encoding="UTF-8"?><svg xmlns="http://www.w3.org/2000/svg" xmlns:xlink="http://www.w3.org/1999/xlink" viewBox="0 0 1920 1080"><defs><style>.cls-1{fill:#fff;}.cls-2{isolation:isolate;}.cls-3{fill:#ef5f3c;}.cls-4{fill:url(#linear-gradient);}.cls-4,.cls-5{mix-blend-mode:soft-light;}.cls-5{fill:url(#linear-gradient-2);}.cls-6{fill:#fcb814;}</style><linearGradient id="linear-gradient" x1="1061.17" y1="550.52" x2="1404.75" y2="550.52" gradientUnits="userSpaceOnUse"><stop offset="0" stop-color="#231f20"/><stop offset=".33" stop-color="#433f40" stop-opacity=".85"/><stop offset=".72" stop-color="#9f9d9e" stop-opacity=".43"/><stop offset="1" stop-color="#fff" stop-opacity="0"/></linearGradient><linearGradient id="linear-gradient-2" x1="618.45" y1="1080" x2="618.45" y2="94.96" gradientUnits="userSpaceOnUse"><stop offset="0" stop-color="#231f20"/><stop offset=".33" stop-color="#433f40" stop-opacity=".85"/><stop offset=".72" stop-color="#9f9d9e" stop-opacity=".43"/><stop offset="1" stop-color="#fff" stop-opacity="0"/></linearGradient></defs><g class="cls-2"><g id="Layer_1"><g><path class="cls-6" d="M1404.75,399.8v115.51c-41.61,12.05-82.71,37.83-63.93,92.93,2.04,5.98,3.59,11.52,4.69,16.63,12.66,58.65-32.81,62.25-59.59,59.59-1.65-.17-3.23-.35-4.73-.56-.77-.1-1.52-.21-2.24-.32-.39-.06-.78-.12-1.15-.18-.81-.13-1.57-.26-2.3-.38-1.65-.29-3.09-.57-4.27-.82-.2-.04-.39-.09-.58-.12-.37-.08-.71-.15-1.01-.22-.12-.03-.24-.06-.35-.09-1.05-.24-1.62-.39-1.62-.39,0,0-.39-.17-1.12-.45-.03-.01-.07-.02-.09-.04-1.03-.39-2.7-.99-4.88-1.67-.25-.07-.49-.14-.74-.22-.57-.17-1.16-.35-1.79-.52-.15-.04-.3-.09-.45-.12-.26-.07-.53-.14-.8-.22-.34-.09-.68-.18-1.03-.27-2.66-.68-5.74-1.36-9.12-1.92-.3-.05-.59-.09-.89-.14-.08-.01-.16-.02-.24-.04-.23-.04-.46-.07-.69-.11-2.12-.31-4.35-.57-6.67-.76-.48-.04-.96-.08-1.45-.11-.45-.03-.89-.06-1.34-.08-.37-.02-.74-.04-1.12-.05-.31-.01-.62-.03-.93-.04-2.95-.09-6.01-.04-9.15,.18-.82,.06-1.64,.13-2.47,.22-1.34,.14-2.7,.31-4.06,.52-.44,.06-.89,.14-1.33,.22-.62,.11-1.24,.22-1.87,.35-.26,.05-.53,.1-.79,.16-.96,.2-1.93,.43-2.89,.66-.38,.09-.74,.19-1.12,.29-.87,.23-1.75,.48-2.63,.75-.08,.03-.16,.06-.25,.08-.38,.12-.77,.25-1.16,.38-.45,.14-.9,.3-1.34,.46-.43,.14-.85,.3-1.28,.46-.08,.03-.16,.06-.25,.09-.33,.13-.66,.25-1,.39-.36,.14-.73,.29-1.1,.45-.4,.17-.79,.33-1.18,.51-.07,.02-.14,.06-.21,.09-.37,.17-.74,.33-1.1,.51-.08,.04-.15,.06-.22,.1-.3,.14-.6,.29-.9,.43-.17,.09-.34,.17-.51,.25-.37,.19-.74,.38-1.1,.56-.3,.16-.6,.32-.9,.48-.25,.13-.5,.27-.75,.41-.17,.09-.33,.18-.49,.28-.31,.17-.61,.35-.92,.53-.09,.04-.17,.09-.25,.14-.3,.18-.58,.35-.87,.53-.35,.22-.7,.43-1.05,.66-.39,.25-.78,.51-1.17,.77-.04,.02-.08,.05-.12,.08-20.86,14.08-45.24,18.23-64.34,10.05-.4-.17-.81-.35-1.21-.53-.43-.19-.85-.39-1.27-.59-.82-.38-1.63-.79-2.44-1.22-.27-.14-.54-.28-.81-.43-.53-.29-1.08-.58-1.6-.9-.53-.31-1.06-.63-1.6-.95-2.04-1.26-4.04-2.64-6.03-4.17-.28-.22-.56-.43-.84-.66-.38-.29-.74-.59-1.12-.9-.45-.37-.91-.75-1.36-1.14-.84-.72-1.67-1.47-2.5-2.24-.28-.26-.56-.52-.83-.78-1.38-1.32-2.76-2.72-4.14-4.21-.28-.3-.56-.6-.83-.9-1.85-2.04-3.7-4.22-5.57-6.58-.24-.3-.48-.6-.71-.9-2.89-3.7-5.82-7.82-8.83-12.39-.27-.41-.54-.83-.82-1.25-1.55-2.39-3.13-4.9-4.72-7.54-.3-.5-.61-1-.91-1.52-.92-1.52-1.84-3.1-2.77-4.71-31.73-54.95-2.92-53.71,41.04-53.29,43.97,.43,75.32-53.84,52.73-115.61-22.59-61.77,47.23-76.12,135.52-60.4,49.7,8.85,82.06-1.94,100.85-13.06Z"/><path class="cls-4" d="M1404.75,399.8v115.51c-41.61,12.05-82.71,37.83-63.93,92.93,2.04,5.98,3.59,11.52,4.69,16.63,12.66,58.65-32.81,62.25-59.59,59.59-1.65-.17-3.23-.35-4.73-.56-.77-.1-1.52-.21-2.24-.32-.39-.06-.78-.12-1.15-.18-.8-.12-1.57-.25-2.3-.38-1.65-.29-3.09-.57-4.27-.82-.2-.04-.39-.09-.58-.12-.37-.08-.71-.15-1.01-.22-.12-.03-.24-.06-.35-.09-.94-.22-1.85-.5-2.74-.84-.03-.01-.07-.02-.09-.04-1.03-.39-2.7-.99-4.88-1.67-.25-.07-.49-.15-.74-.22-.57-.17-1.16-.35-1.79-.52-.15-.04-.3-.09-.45-.12-.26-.07-.53-.14-.8-.22-.34-.09-.68-.19-1.03-.27-2.66-.68-5.74-1.36-9.12-1.92-.3-.05-.59-.1-.89-.14-.08-.01-.16-.02-.24-.04-.23-.04-.46-.07-.69-.11-2.12-.31-4.35-.57-6.67-.76-.48-.04-.96-.08-1.45-.11-.44-.03-.89-.06-1.34-.08-.37-.02-.74-.04-1.12-.05-.31-.01-.62-.03-.93-.04-2.95-.09-6.01-.04-9.15,.18-.82,.06-1.64,.13-2.47,.22-1.34,.14-2.7,.31-4.06,.52-.45,.06-.89,.14-1.33,.22-.62,.11-1.24,.22-1.87,.35-.26,.05-.53,.1-.79,.16-.96,.2-1.93,.43-2.89,.66-.38,.09-.75,.19-1.12,.29-.87,.23-1.75,.48-2.63,.75-.08,.03-.16,.06-.25,.08-.38,.12-.77,.25-1.16,.38-.45,.14-.9,.3-1.34,.46-.43,.15-.85,.3-1.28,.46-.08,.03-.16,.06-.25,.09-.33,.12-.66,.25-1,.39-.36,.14-.73,.29-1.1,.45-.39,.16-.79,.33-1.18,.51-.07,.02-.14,.06-.21,.09-.37,.17-.74,.33-1.1,.51-.08,.04-.15,.06-.22,.1-.3,.14-.61,.29-.9,.43-.17,.09-.34,.17-.51,.25-.37,.18-.73,.37-1.1,.56-.3,.16-.6,.32-.9,.48-.25,.13-.51,.27-.75,.41-.17,.09-.33,.18-.49,.28-.31,.17-.61,.34-.92,.53-.09,.04-.17,.09-.25,.14-.29,.17-.58,.35-.87,.53-.35,.21-.7,.43-1.05,.66-.39,.25-.78,.51-1.17,.77-.04,.02-.08,.05-.12,.08-.19,.12-.37,.25-.56,.38-19.06,13.15-41.4,17.79-59.56,11.33-1.43-.51-2.84-1.06-4.23-1.66-.4-.17-.81-.35-1.21-.53-.43-.19-.85-.39-1.27-.59-.82-.38-1.63-.79-2.44-1.22-.27-.14-.54-.28-.81-.43-.53-.29-1.08-.58-1.6-.9-.53-.31-1.07-.63-1.6-.95-2.04-1.26-4.04-2.64-6.03-4.17-.28-.22-.56-.43-.84-.66-.38-.29-.74-.59-1.12-.9-.45-.37-.91-.75-1.36-1.14-.84-.72-1.67-1.47-2.5-2.24-.28-.26-.56-.52-.83-.78-1.38-1.32-2.76-2.72-4.14-4.21-.28-.3-.56-.6-.83-.9-1.85-2.04-3.7-4.22-5.57-6.58-.24-.3-.48-.6-.71-.9-2.89-3.7-5.82-7.82-8.83-12.39-.27-.41-.54-.83-.82-1.25-1.55-2.39-3.13-4.9-4.72-7.54-.3-.5-.61-1-.91-1.52-.92-1.52-1.84-3.1-2.77-4.71-31.73-54.95-2.92-53.71,41.04-53.29,43.97,.43,75.32-53.84,52.73-115.61-22.59-61.77,47.23-76.12,135.52-60.4,49.7,8.85,82.06-1.94,100.85-13.06Z"/></g><g><path class="cls-3" d="M939.63,1080h-313.78l-4.89-12.09-61.67-152.37-.89-2.2-75.02-185.37-67.43-166.59-.1-.26-70.7-174.69-47.88-118.31c10.26-16.5,20.71-31.65,31.31-45.55,.15-.19,.29-.37,.45-.56,5.58-7.33,11.2-14.31,16.89-20.92,.01,0,.01-.01,.03-.01,12.93-15.14,26.04-28.46,39.25-40.09,100.86-88.97,206.98-79.91,281.49-20.9,36.88,29.22,66.01,70.66,82.93,118.52,14.86,42.01,20.31,88.96,13.33,136.9-5.04,34.58-16.54,69.69-35.65,103.83-12.09,21.6-20.78,43.54-26.55,65.68-.2,.79-.4,1.6-.59,2.41-4.66,18.64-7.25,37.39-8.04,56.15-.04,.75-.07,1.5-.08,2.26-2.94,84.58,30.45,169.2,75.26,243.6,.52,.85,1.03,1.7,1.55,2.55,55.58,91.49,128.1,167.25,170.78,208.01Z"/><path class="cls-5" d="M939.63,1080h-313.78l-4.89-12.09-61.67-152.37-.89-2.2-75.02-185.37-67.43-166.59-.1-.26-70.7-174.69-47.88-118.31c10.26-16.5,20.71-31.65,31.31-45.55,.15-.19,.29-.37,.45-.56,5.58-7.33,11.2-14.31,16.89-20.92,.01,0,.01-.01,.03-.01,12.93-15.14,26.04-28.46,39.25-40.09,100.86-88.97,206.98-79.91,281.49-20.9,36.88,29.22,66.01,70.66,82.93,118.52,14.86,42.01,20.31,88.96,13.33,136.9-5.04,34.58-16.54,69.69-35.65,103.83-12.09,21.6-20.78,43.54-26.55,65.68-.2,.79-.4,1.6-.59,2.41-4.66,18.64-7.25,37.39-8.04,56.15-.04,.75-.07,1.5-.08,2.26-2.94,84.58,30.45,169.2,75.26,243.6,.52,.85,1.03,1.7,1.55,2.55,55.58,91.49,128.1,167.25,170.78,208.01Z"/></g><path class="cls-1" d="M1392.04,1080h-2.06c-5.33-13.73-10.1-27.69-14.37-41.79-4.65-15.44-8.77-31.04-12.19-46.8-.93-3.92-1.66-7.89-2.48-11.83l-1.21-5.93c-.4-1.97-.73-3.96-1.09-5.95-.7-3.97-1.46-7.93-2.12-11.9l-1.88-11.95c-.33-1.99-.61-3.98-.87-5.98l-.8-5.99c-.13-1-.27-2.01-.4-3.01-.08-.62-.17-1.24-.25-1.87-.31-2.37-.61-4.74-.85-7.12l-1.35-12.02-1.1-12.04-.54-6.02-.42-6.03-.83-12.06-.59-12.08-.3-6.04-.17-6.04-.35-12.08-.12-12.09c-.14-8.06,.02-16.12,.09-24.18,0-.68,.01-1.35,.02-2.03,.04-3.35,.17-6.7,.26-10.05l.36-12.08c.4-8.05,.73-16.1,1.22-24.15,.53-8.03,1.11-16.09,1.59-24.1,.46-8.02,1.1-16.03,1.24-24.06,.8-22.36,.57-44.76-.67-67.1-.54-9.74-1.27-19.46-2.19-29.17-3.09-31.98-8.3-63.75-15.39-95.09-.82-3.93-1.84-7.82-2.79-11.72l-2.9-11.7-3.17-11.62-1.59-5.82-1.72-5.77-3.45-11.55c-1.17-3.84-2.46-7.64-3.69-11.47-2.41-7.67-5.14-15.22-7.79-22.81-.74-2.2-1.56-4.37-2.38-6.54-.61-1.59-1.21-3.17-1.8-4.76-1.43-3.76-2.78-7.54-4.29-11.27-3.01-7.45-5.9-14.95-9.13-22.31-6.19-14.83-13.02-29.39-19.99-43.87-14.21-28.83-29.72-57.04-46.65-84.38-33.78-54.74-72.69-106.27-115.34-154.44-16.46-18.57-33.47-36.65-51.04-54.17-5.21-5.2-10.48-10.36-15.79-15.46-7.55-7.25-15.21-14.39-22.97-21.42h.74c7.68,6.85,15.25,13.82,22.74,20.89,5.43,5.13,10.8,10.32,16.12,15.56,17.64,17.34,34.74,35.23,51.29,53.63,42.94,48.02,82.11,99.49,116.2,154.2,8.57,13.65,16.7,27.57,24.58,41.62l5.83,10.59c1.93,3.54,3.77,7.13,5.65,10.69,3.81,7.1,7.32,14.36,10.96,21.55,7.01,14.51,13.89,29.1,20.12,43.97,3.24,7.38,6.15,14.9,9.19,22.37,1.24,3.05,2.37,6.15,3.54,9.23,.26,.69,.52,1.38,.78,2.06,1.4,3.78,2.9,7.52,4.2,11.34,2.67,7.61,5.42,15.18,7.85,22.87,1.24,3.84,2.54,7.65,3.72,11.51l3.48,11.58,1.73,5.79,1.6,5.83,3.2,11.67,2.93,11.73c.96,3.92,1.99,7.82,2.82,11.76,7.16,31.45,12.43,63.33,15.58,95.44,.89,9.55,1.6,19.12,2.13,28.7,1.25,22.63,1.46,45.32,.62,67.96-.16,8.07-.82,16.11-1.29,24.16-.49,8.05-1.08,16.05-1.62,24.07-.49,8.03-.84,16.06-1.24,24.09l-.38,12.05c-.12,3.92-.27,7.84-.3,11.77v.28c-.74,42.56,1.09,85.24,6.34,127.48,.08,.61,.16,1.23,.24,1.85,2.65,20.91,6.14,41.72,10.58,62.34,3.33,15.72,7.38,31.28,11.95,46.69,4.26,14.3,9.04,28.46,14.41,42.39Z"/><path class="cls-1" d="M1049.83,.29c-.95,1.12-1.91,2.23-2.87,3.34-12.33,13.89-25.68,26.91-40.02,38.75-14.32,11.86-29.49,22.69-45.26,32.54-15.77,9.87-32.24,18.59-49.07,26.48l-6.33,2.93-3.17,1.46-3.21,1.36-12.87,5.4c-4.31,1.72-8.69,3.29-13.04,4.95l-6.54,2.43-6.61,2.22c-4.42,1.45-8.81,2.98-13.24,4.38l-13.39,3.94c-1.11,.32-2.23,.66-3.34,.99-1.12,.33-2.23,.66-3.36,.95l-6.75,1.73-13.52,3.46-13.62,2.98-6.82,1.49c-2.26,.53-4.56,.86-6.84,1.31-9.16,1.63-18.28,3.46-27.5,4.67l-27.55,4.04c-4.57,.7-9.17,1.29-13.73,2.08l-13.67,2.47c-9.14,1.49-18.16,3.61-27.23,5.47-4.55,.9-9.03,2.07-13.53,3.16l-13.5,3.29-13.39,3.7c-4.46,1.25-8.94,2.4-13.35,3.83-8.85,2.75-17.74,5.36-26.47,8.45-4.38,1.51-8.78,2.94-13.14,4.51l-13.03,4.83c-2.17,.81-4.35,1.59-6.51,2.43l-6.45,2.59-12.89,5.18-12.76,5.5c-.7,.3-1.39,.6-2.09,.9-1.43,.61-2.86,1.22-4.28,1.87l-6.32,2.9c-4.2,1.94-8.44,3.82-12.62,5.81l-12.5,6.08c-16.58,8.28-32.99,16.92-49,26.27-4.4,2.55-8.78,5.15-13.13,7.77v-2.08c4.04-2.47,8.1-4.92,12.18-7.33,8.2-4.87,16.5-9.55,24.89-14.09,.17-.09,.33-.18,.5-.27,6.26-3.4,12.57-6.71,18.91-9.96,.01,0,.01-.01,.02-.01,1.53-.8,3.07-1.58,4.6-2.36,16.56-8.43,33.51-16.09,50.6-23.39l12.92-5.23,6.46-2.61c2.17-.86,4.35-1.64,6.53-2.46l13.06-4.88c4.37-1.58,8.78-3.03,13.17-4.56,8.76-3.12,17.67-5.76,26.54-8.54,4.42-1.44,8.93-2.61,13.4-3.88l13.43-3.74,13.54-3.34c4.51-1.1,9.01-2.29,13.57-3.2l13.64-2.92c4.53-1.03,9.11-1.82,13.69-2.64l13.73-2.45c4.58-.78,9.19-1.36,13.79-2.05l27.55-3.97c9.19-1.18,18.27-2.98,27.39-4.59,2.27-.43,4.57-.76,6.83-1.28l6.78-1.47,13.58-2.94,13.46-3.4,6.73-1.71c.74-.19,1.47-.4,2.21-.61,1.49-.42,2.98-.88,4.47-1.3l13.33-3.9c4.41-1.38,8.79-2.89,13.19-4.33l6.59-2.18,6.51-2.41c4.33-1.63,8.69-3.2,13-4.88l12.84-5.28,3.21-1.32,3.16-1.44,6.32-2.87c16.82-7.73,33.28-16.29,49.05-25.99,15.78-9.7,30.95-20.38,45.33-32.07,14.42-11.62,27.88-24.44,40.34-38.15,.83-.93,1.66-1.87,2.49-2.81h.98Z"/><path class="cls-1" d="M1162.63,1080h-3.73c-.64-.57-1.28-1.15-1.92-1.72-5.25-4.69-10.37-9.51-15.51-14.31-5.08-4.87-10.19-9.7-15.16-14.68-5.03-4.92-9.91-9.99-14.83-15.01-4.84-5.11-9.71-10.19-14.43-15.42-9.49-10.39-18.74-21-27.61-31.93-17.8-21.81-34.28-44.72-48.99-68.75-1.63-2.69-3.24-5.39-4.83-8.11-.43-.71-.85-1.43-1.26-2.15-5.09-8.74-9.96-17.6-14.5-26.64-1.61-3.13-3.09-6.33-4.64-9.5-.76-1.59-1.55-3.16-2.28-4.76l-2.16-4.83c-2.87-6.46-5.79-12.79-8.69-19.15-6.17-12.55-13.14-24.69-20.85-36.36l-5.94-8.64c-2.05-2.83-4.18-5.61-6.26-8.42-2.05-2.84-4.32-5.5-6.51-8.23l-3.3-4.07c-1.11-1.36-2.29-2.65-3.44-3.97-2.32-2.62-4.56-5.31-6.96-7.86l-7.2-7.64c-2.43-2.51-4.96-4.93-7.43-7.41-.24-.25-.49-.49-.74-.74-2.23-2.22-4.57-4.35-6.88-6.48-5.07-4.83-10.43-9.34-15.74-13.91l-8.14-6.64c-2.7-2.22-5.53-4.29-8.29-6.44-22.28-17.01-46.08-31.98-70.69-45.4-12.34-6.67-24.85-13-37.55-18.95-12.72-5.93-25.57-11.55-38.57-16.84-30.17-12.23-61.02-22.76-92.28-31.89-22.64-6.62-45.5-12.51-68.48-17.78-27.37-6.29-54.95-11.67-82.68-16.18-13.86-2.24-27.76-4.28-41.7-6.05-5.71-.73-11.42-1.42-17.14-2.06v-.22c5.73,.59,11.46,1.23,17.19,1.91,13.95,1.66,27.87,3.58,41.77,5.7,27.78,4.27,55.43,9.41,82.88,15.48,23.27,5.2,46.41,11.02,69.33,17.63,4.1,1.18,8.2,2.39,12.29,3.62,13.46,4.07,26.86,8.36,40.14,12.97,13.28,4.63,26.47,9.54,39.54,14.74,13.06,5.24,25.98,10.82,38.76,16.7,12.78,5.91,25.34,12.28,37.73,18.95,24.74,13.43,48.68,28.43,71.11,45.5,2.78,2.16,5.63,4.23,8.35,6.47l8.2,6.66c5.35,4.6,10.75,9.13,15.87,13.98,1.97,1.82,3.96,3.62,5.89,5.49,.6,.58,1.2,1.17,1.79,1.77,2.5,2.49,5.05,4.92,7.5,7.45l7.27,7.69c2.41,2.57,4.68,5.27,7.03,7.91,1.15,1.33,2.35,2.62,3.46,3.99l3.34,4.1c2.21,2.75,4.51,5.43,6.58,8.29,2.11,2.83,4.25,5.63,6.33,8.48l6.01,8.72c7.8,11.76,14.86,24.01,21.1,36.68,2.94,6.42,5.89,12.85,8.71,19.24l2.14,4.79c.72,1.6,1.51,3.16,2.26,4.74,1.53,3.15,2.99,6.33,4.59,9.45,4.62,9.21,9.56,18.24,14.75,27.15,.41,.72,.84,1.45,1.26,2.17,1.45,2.48,2.92,4.94,4.41,7.4,14.59,23.93,30.96,46.78,48.66,68.52,27.67,34.04,58.44,65.45,91.07,94.8Z"/><path class="cls-1" d="M1920,837.62v.57c-12.42,8.67-25.33,16.66-38.63,23.92-17.93,9.84-36.5,18.51-55.53,26.01-19.05,7.47-38.52,13.85-58.24,19.27-5.67,1.55-11.37,3.02-17.08,4.42-31.33,7.66-63.19,13.06-95.23,16.77-.84,.1-1.68,.19-2.53,.29-1.92,.21-3.84,.42-5.76,.63-40.69,4.33-81.62,6.07-122.51,6.05-40.91-.01-81.8-1.78-122.58-4.75-40.79-2.94-81.48-7.13-122.07-12.02-81.18-9.88-161.96-22.75-242.5-36.7l-30.2-5.31c-10.07-1.64-20.1-3.42-30.23-4.63-20.21-2.66-40.54-4.48-60.92-5.29-2.55-.11-5.1-.29-7.65-.33l-7.64-.18c-5.1-.11-10.2-.29-15.3-.23-5.1,.01-10.2-.02-15.3,.04l-15.29,.38c-20.39,.71-40.76,2.06-61.07,4.05-20.3,2.07-40.54,4.73-60.7,7.9-20.16,3.21-40.22,7.03-60.19,11.25-19.98,4.19-39.82,9.05-59.58,14.16-6.72,1.74-13.42,3.53-20.1,5.39-.96,.25-1.92,.52-2.87,.79-12.03,3.35-24.02,6.87-35.96,10.52-17.16,5.24-34.22,10.77-51.2,16.57-60.32,20.62-119.47,44.65-177.44,71.19-30.52,13.95-60.7,28.63-90.53,44.02-6.49,3.34-12.96,6.72-19.42,10.13-10.84,5.74-21.64,11.57-32.37,17.5h-1.05c10.97-6.15,22-12.2,33.08-18.14,6.45-3.46,12.92-6.88,19.4-10.28,29.73-15.55,59.83-30.42,90.28-44.55,57.82-26.74,116.85-50.96,177.08-71.77,17.07-5.91,34.24-11.53,51.5-16.87,11.74-3.64,23.53-7.14,35.37-10.47,.95-.28,1.91-.55,2.87-.81,26.59-7.46,53.4-14.12,80.4-19.91,20.01-4.25,40.1-8.1,60.31-11.34,20.2-3.21,40.49-5.89,60.85-8,20.36-2.01,40.79-3.39,61.24-4.13l15.35-.39c5.12-.06,10.24-.04,15.35-.06,5.12-.07,10.24,.11,15.35,.21l7.68,.18c2.56,.03,5.11,.22,7.67,.32,20.46,.79,40.88,2.6,61.18,5.25,10.17,1.2,20.27,2.98,30.37,4.61l30.19,5.28c80.51,14.02,161.22,26.98,242.32,36.94,81.08,9.9,162.63,16.77,244.32,17.18,40.83,.15,81.69-1.45,122.31-5.63,1.9-.2,3.81-.4,5.71-.62,.85-.08,1.69-.18,2.54-.27,31.92-3.59,63.66-8.86,94.89-16.37,5.78-1.38,11.53-2.84,17.27-4.39,19.71-5.29,39.18-11.53,58.23-18.88,19.03-7.36,37.62-15.9,55.58-25.62,13.42-7.22,26.44-15.18,38.98-23.85Z"/></g></g></svg>