<svg xmlns="http://www.w3.org/2000/svg" xmlns:xlink="http://www.w3.org/1999/xlink" viewBox="0 0 1920 1080"><defs><style>.cls-1{isolation:isolate;}.cls-2{fill:#440d4c;}.cls-3{mix-blend-mode:soft-light;fill:url(#linear-gradient);}</style><linearGradient id="linear-gradient" y1="540" x2="1760.75" y2="540" gradientUnits="userSpaceOnUse"><stop offset="0" stop-color="#231f20"/><stop offset="0.33" stop-color="#3f3b3c" stop-opacity="0.87"/><stop offset="0.69" stop-color="#918f8f" stop-opacity="0.5"/><stop offset="1" stop-color="#fff" stop-opacity="0"/></linearGradient></defs><g class="cls-1"><g id="Layer_1" data-name="Layer 1"><path class="cls-2" d="M312,.29s272.13,495.48,967.75,658.76,432,421,432,421H0V0Z"/><path class="cls-3" d="M1711.74,1080H0V0L312,.29s28.83,52.49,91.71,128.93c.61.74,1.22,1.49,1.85,2.24a1448.89,1448.89,0,0,0,136.62,143.6A1558.65,1558.65,0,0,0,736.45,427c140.92,93.32,320.36,179.77,543.29,232.1,178.16,41.82,293.4,89.83,366.26,138.12l2.71,1.8h0c56.44,37.95,86.86,76,101.23,111.38.2.49.39,1,.58,1.45C1787.65,1005.8,1711.74,1080,1711.74,1080Z"/></g></g></svg>