<svg id="Layer_1" data-name="Layer 1" xmlns="http://www.w3.org/2000/svg" viewBox="0 0 1920 1080"><defs><style>.cls-1{fill:#fff;}</style></defs><path class="cls-1" d="M624.51.29Q623.08,2,621.64,3.63a360.83,360.83,0,0,1-40,38.75,418.38,418.38,0,0,1-45.26,32.54,461.87,461.87,0,0,1-49.07,26.48L481,104.33l-3.17,1.46-3.21,1.36-12.87,5.4c-4.31,1.72-8.69,3.29-13,5l-6.54,2.43-6.61,2.22c-4.42,1.45-8.81,3-13.24,4.38l-13.39,3.94-3.34,1c-1.12.33-2.23.66-3.36.95l-6.75,1.73-13.52,3.46-13.62,3-6.82,1.49c-2.26.53-4.56.86-6.84,1.31-9.16,1.63-18.28,3.46-27.5,4.67l-27.55,4c-4.57.7-9.17,1.29-13.73,2.08l-13.67,2.47c-9.14,1.49-18.16,3.61-27.23,5.47-4.55.9-9,2.07-13.53,3.16l-13.5,3.29-13.39,3.7c-4.46,1.25-8.94,2.4-13.35,3.83-8.85,2.75-17.74,5.36-26.47,8.45-4.38,1.51-8.78,2.94-13.14,4.51l-13,4.83c-2.17.81-4.35,1.59-6.51,2.43l-6.45,2.59-12.89,5.18-12.76,5.5-2.09.9c-1.43.61-2.86,1.22-4.28,1.87l-6.32,2.9c-4.2,1.94-8.44,3.82-12.62,5.81l-12.5,6.08c-16.58,8.28-33,16.92-49,26.27Q6.53,257.24,0,261.18V259.1q6.06-3.71,12.18-7.33,12.3-7.31,24.89-14.09l.5-.27q9.39-5.1,18.91-10h0c1.53-.8,3.07-1.58,4.6-2.36,16.56-8.43,33.51-16.09,50.6-23.39l12.92-5.23,6.46-2.61c2.17-.86,4.35-1.64,6.53-2.46l13.06-4.88c4.37-1.58,8.78-3,13.17-4.56,8.76-3.12,17.67-5.76,26.54-8.54,4.42-1.44,8.93-2.61,13.4-3.88l13.43-3.74,13.54-3.34c4.51-1.1,9-2.29,13.57-3.2L258,156.33c4.53-1,9.11-1.82,13.69-2.64l13.73-2.45c4.58-.78,9.19-1.36,13.79-2.05l27.55-4c9.19-1.18,18.27-3,27.39-4.59,2.27-.43,4.57-.76,6.83-1.28l6.78-1.47,13.58-2.94,13.46-3.4,6.73-1.71c.74-.19,1.47-.4,2.21-.61,1.49-.42,3-.88,4.47-1.3L421.5,124c4.41-1.38,8.79-2.89,13.19-4.33l6.59-2.18,6.51-2.41c4.33-1.63,8.69-3.2,13-4.88l12.84-5.28,3.21-1.32,3.16-1.44,6.32-2.87a460.53,460.53,0,0,0,49.05-26A422.86,422.86,0,0,0,580.7,41.25,359.17,359.17,0,0,0,621,3.1L623.53.29Z"/></svg>