<svg id="Layer_1" data-name="Layer 1" xmlns="http://www.w3.org/2000/svg" viewBox="0 0 1920 1080"><defs><style>.cls-1{fill:#fff;}</style></defs><path class="cls-1" d="M1920,837.62v.57a414.34,414.34,0,0,1-38.63,23.92,485.22,485.22,0,0,1-55.53,26,582,582,0,0,1-58.24,19.27q-8.5,2.33-17.08,4.42a777.34,777.34,0,0,1-95.23,16.77l-2.53.29-5.76.63a1152.5,1152.5,0,0,1-122.51,6c-40.91,0-81.8-1.78-122.58-4.75s-81.48-7.13-122.07-12c-81.18-9.88-162-22.75-242.5-36.7l-30.2-5.31c-10.07-1.64-20.1-3.42-30.23-4.63-20.21-2.66-40.54-4.48-60.92-5.29-2.55-.11-5.1-.29-7.65-.33l-7.64-.18c-5.1-.11-10.2-.29-15.3-.23s-10.2,0-15.3,0l-15.29.38q-30.59,1.07-61.07,4.05t-60.7,7.9c-20.16,3.21-40.22,7-60.19,11.25s-39.82,9-59.58,14.16q-10.08,2.61-20.1,5.39c-1,.25-1.92.52-2.87.79q-18,5-36,10.52-25.74,7.86-51.2,16.57c-60.32,20.62-119.47,44.65-177.44,71.19q-45.78,20.92-90.53,44-9.73,5-19.42,10.13-16.26,8.61-32.37,17.5h-1q16.46-9.23,33.08-18.14,9.68-5.19,19.4-10.28,44.6-23.32,90.28-44.55a1902.37,1902.37,0,0,1,177.08-71.77q25.6-8.87,51.5-16.87,17.61-5.46,35.37-10.47c1-.28,1.91-.55,2.87-.81q39.89-11.19,80.4-19.91c20-4.25,40.1-8.1,60.31-11.34s40.49-5.89,60.85-8,40.79-3.39,61.24-4.13l15.35-.39c5.12-.06,10.24,0,15.35-.06s10.24.11,15.35.21l7.68.18c2.56,0,5.11.22,7.67.32,20.46.79,40.88,2.6,61.18,5.25,10.17,1.2,20.27,3,30.37,4.61l30.19,5.28c80.51,14,161.22,27,242.32,36.94s162.63,16.77,244.32,17.18a1153.54,1153.54,0,0,0,122.31-5.63c1.9-.2,3.81-.4,5.71-.62.85-.08,1.69-.18,2.54-.27a777.26,777.26,0,0,0,94.89-16.37q8.67-2.07,17.27-4.39a577.84,577.84,0,0,0,58.23-18.88A482.31,482.31,0,0,0,1881,861.47,410.72,410.72,0,0,0,1920,837.62Z"/></svg>