<?xml version="1.0" encoding="utf-8"?>
<!-- Generator: Adobe Illustrator 28.0.0, SVG Export Plug-In . SVG Version: 6.00 Build 0)  -->
<svg version="1.1" id="Layer_1" xmlns="http://www.w3.org/2000/svg" xmlns:xlink="http://www.w3.org/1999/xlink" x="0px" y="0px"
	 viewBox="0 0 1920 1080" style="enable-background:new 0 0 1920 1080;" xml:space="preserve">
<style type="text/css">
	.st0{fill:#FFFFFF;}
</style>
<path class="st0" d="M1692.7,1080.3h-2.1c-5.3-13.7-10.1-27.7-14.4-41.8c-4.7-15.4-8.8-31-12.2-46.8c-0.9-3.9-1.7-7.9-2.5-11.8
	l-1.2-5.9c-0.4-2-0.7-4-1.1-5.9c-0.7-4-1.5-7.9-2.1-11.9l-1.9-12c-0.3-2-0.6-4-0.9-6l-0.8-6c-0.1-1-0.3-2-0.4-3
	c-0.1-0.6-0.2-1.2-0.2-1.9c-0.3-2.4-0.6-4.7-0.9-7.1l-1.3-12l-1.1-12l-0.5-6l-0.4-6l-0.8-12.1l-0.6-12.1l-0.3-6l-0.2-6l-0.3-12.1
	l-0.1-12.1c-0.1-8.1,0-16.1,0.1-24.2c0-0.7,0-1.4,0-2c0-3.3,0.2-6.7,0.3-10l0.4-12.1c0.4-8,0.7-16.1,1.2-24.1
	c0.5-8,1.1-16.1,1.6-24.1c0.5-8,1.1-16,1.2-24.1c0.8-22.4,0.6-44.8-0.7-67.1c-0.5-9.7-1.3-19.5-2.2-29.2c-3.1-32-8.3-63.8-15.4-95.1
	c-0.8-3.9-1.8-7.8-2.8-11.7l-2.9-11.7l-3.2-11.6l-1.6-5.8l-1.7-5.8l-3.4-11.5c-1.2-3.8-2.5-7.6-3.7-11.5c-2.4-7.7-5.1-15.2-7.8-22.8
	c-0.7-2.2-1.6-4.4-2.4-6.5c-0.6-1.6-1.2-3.2-1.8-4.8c-1.4-3.8-2.8-7.5-4.3-11.3c-3-7.4-5.9-14.9-9.1-22.3c-6.2-14.8-13-29.4-20-43.9
	c-14.2-28.8-29.7-57-46.6-84.4c-33.8-54.7-72.7-106.3-115.3-154.4c-16.5-18.6-33.5-36.6-51-54.2c-5.2-5.2-10.5-10.4-15.8-15.5
	c-7.5-7.2-15.2-14.4-23-21.4h0.7c7.7,6.9,15.2,13.8,22.7,20.9c5.4,5.1,10.8,10.3,16.1,15.6c17.6,17.3,34.7,35.2,51.3,53.6
	c42.9,48,82.1,99.5,116.2,154.2c8.6,13.6,16.7,27.6,24.6,41.6l5.8,10.6c1.9,3.5,3.8,7.1,5.7,10.7c3.8,7.1,7.3,14.4,11,21.5
	c7,14.5,13.9,29.1,20.1,44c3.2,7.4,6.2,14.9,9.2,22.4c1.2,3,2.4,6.2,3.5,9.2c0.3,0.7,0.5,1.4,0.8,2.1c1.4,3.8,2.9,7.5,4.2,11.3
	c2.7,7.6,5.4,15.2,7.8,22.9c1.2,3.8,2.5,7.7,3.7,11.5l3.5,11.6l1.7,5.8l1.6,5.8l3.2,11.7l2.9,11.7c1,3.9,2,7.8,2.8,11.8
	c7.2,31.5,12.4,63.3,15.6,95.4c0.9,9.5,1.6,19.1,2.1,28.7c1.2,22.6,1.5,45.3,0.6,68c-0.2,8.1-0.8,16.1-1.3,24.2
	c-0.5,8-1.1,16-1.6,24.1c-0.5,8-0.8,16.1-1.2,24.1l-0.4,12.1c-0.1,3.9-0.3,7.8-0.3,11.8v0.3c-0.7,42.6,1.1,85.2,6.3,127.5
	c0.1,0.6,0.2,1.2,0.2,1.8c2.6,20.9,6.1,41.7,10.6,62.3c3.3,15.7,7.4,31.3,12,46.7C1682.5,1052.2,1687.3,1066.4,1692.7,1080.3z"/>
<path class="st0" d="M625,0.6c-1,1.1-1.9,2.2-2.9,3.3c-12.3,13.9-25.7,26.9-40,38.8c-14.3,11.9-29.5,22.7-45.3,32.5
	c-15.8,9.9-32.2,18.6-49.1,26.5l-6.3,2.9l-3.2,1.5l-3.2,1.4l-12.9,5.4c-4.3,1.7-8.7,3.3-13,5l-6.5,2.4l-6.6,2.2
	c-4.4,1.5-8.8,3-13.2,4.4l-13.4,3.9c-1.1,0.3-2.2,0.7-3.3,1c-1.1,0.3-2.2,0.7-3.4,1l-6.8,1.7l-13.5,3.5l-13.6,3l-6.8,1.5
	c-2.3,0.5-4.6,0.9-6.8,1.3c-9.2,1.6-18.3,3.5-27.5,4.7l-27.5,4c-4.6,0.7-9.2,1.3-13.7,2.1l-13.7,2.5c-9.1,1.5-18.2,3.6-27.2,5.5
	c-4.6,0.9-9,2.1-13.5,3.2l-13.5,3.3l-13.4,3.7c-4.5,1.2-8.9,2.4-13.3,3.8c-8.8,2.8-17.7,5.4-26.5,8.5c-4.4,1.5-8.8,2.9-13.1,4.5
	l-13,4.8c-2.2,0.8-4.3,1.6-6.5,2.4l-6.4,2.6l-12.9,5.2l-12.8,5.5c-0.7,0.3-1.4,0.6-2.1,0.9c-1.4,0.6-2.9,1.2-4.3,1.9l-6.3,2.9
	c-4.2,1.9-8.4,3.8-12.6,5.8l-12.5,6.1c-16.6,8.3-33,16.9-49,26.3c-4.4,2.5-8.8,5.2-13.1,7.8v-2.1c4-2.5,8.1-4.9,12.2-7.3
	c8.2-4.9,16.5-9.5,24.9-14.1c0.2-0.1,0.3-0.2,0.5-0.3c6.3-3.4,12.6-6.7,18.9-10c0,0,0,0,0,0c1.5-0.8,3.1-1.6,4.6-2.4
	c16.6-8.4,33.5-16.1,50.6-23.4l12.9-5.2l6.5-2.6c2.2-0.9,4.3-1.6,6.5-2.5l13.1-4.9c4.4-1.6,8.8-3,13.2-4.6
	c8.8-3.1,17.7-5.8,26.5-8.5c4.4-1.4,8.9-2.6,13.4-3.9l13.4-3.7l13.5-3.3c4.5-1.1,9-2.3,13.6-3.2l13.6-2.9c4.5-1,9.1-1.8,13.7-2.6
	l13.7-2.5c4.6-0.8,9.2-1.4,13.8-2l27.5-4c9.2-1.2,18.3-3,27.4-4.6c2.3-0.4,4.6-0.8,6.8-1.3l6.8-1.5l13.6-2.9l13.5-3.4l6.7-1.7
	c0.7-0.2,1.5-0.4,2.2-0.6c1.5-0.4,3-0.9,4.5-1.3l13.3-3.9c4.4-1.4,8.8-2.9,13.2-4.3l6.6-2.2l6.5-2.4c4.3-1.6,8.7-3.2,13-4.9
	l12.8-5.3l3.2-1.3l3.2-1.4l6.3-2.9c16.8-7.7,33.3-16.3,49-26c15.8-9.7,31-20.4,45.3-32.1C595.6,30,609,17.1,621.5,3.4
	c0.8-0.9,1.7-1.9,2.5-2.8H625z"/>
<path class="st0" d="M737.8,1080.3H734c-0.6-0.6-1.3-1.2-1.9-1.7c-5.2-4.7-10.4-9.5-15.5-14.3c-5.1-4.9-10.2-9.7-15.2-14.7
	c-5-4.9-9.9-10-14.8-15c-4.8-5.1-9.7-10.2-14.4-15.4c-9.5-10.4-18.7-21-27.6-31.9c-17.8-21.8-34.3-44.7-49-68.8
	c-1.6-2.7-3.2-5.4-4.8-8.1c-0.4-0.7-0.8-1.4-1.3-2.2c-5.1-8.7-10-17.6-14.5-26.6c-1.6-3.1-3.1-6.3-4.6-9.5c-0.8-1.6-1.6-3.2-2.3-4.8
	l-2.2-4.8c-2.9-6.5-5.8-12.8-8.7-19.2c-6.2-12.5-13.1-24.7-20.9-36.4l-5.9-8.6c-2-2.8-4.2-5.6-6.3-8.4c-2-2.8-4.3-5.5-6.5-8.2
	l-3.3-4.1c-1.1-1.4-2.3-2.7-3.4-4c-2.3-2.6-4.6-5.3-7-7.9l-7.2-7.6c-2.4-2.5-5-4.9-7.4-7.4c-0.2-0.2-0.5-0.5-0.7-0.7
	c-2.2-2.2-4.6-4.4-6.9-6.5c-5.1-4.8-10.4-9.3-15.7-13.9l-8.1-6.6c-2.7-2.2-5.5-4.3-8.3-6.4c-22.3-17-46.1-32-70.7-45.4
	c-12.3-6.7-24.9-13-37.6-18.9c-12.7-5.9-25.6-11.6-38.6-16.8c-30.2-12.2-61-22.8-92.3-31.9c-22.6-6.6-45.5-12.5-68.5-17.8
	c-27.4-6.3-55-11.7-82.7-16.2c-13.9-2.2-27.8-4.3-41.7-6c-5.7-0.7-11.4-1.4-17.1-2.1v-0.2c5.7,0.6,11.5,1.2,17.2,1.9
	c14,1.7,27.9,3.6,41.8,5.7c27.8,4.3,55.4,9.4,82.9,15.5c23.3,5.2,46.4,11,69.3,17.6c4.1,1.2,8.2,2.4,12.3,3.6
	c13.5,4.1,26.9,8.4,40.1,13c13.3,4.6,26.5,9.5,39.5,14.7c13.1,5.2,26,10.8,38.8,16.7c12.8,5.9,25.3,12.3,37.7,19
	c24.7,13.4,48.7,28.4,71.1,45.5c2.8,2.2,5.6,4.2,8.4,6.5l8.2,6.7c5.4,4.6,10.8,9.1,15.9,14c2,1.8,4,3.6,5.9,5.5
	c0.6,0.6,1.2,1.2,1.8,1.8c2.5,2.5,5,4.9,7.5,7.5l7.3,7.7c2.4,2.6,4.7,5.3,7,7.9c1.1,1.3,2.3,2.6,3.5,4l3.3,4.1
	c2.2,2.8,4.5,5.4,6.6,8.3c2.1,2.8,4.2,5.6,6.3,8.5l6,8.7c7.8,11.8,14.9,24,21.1,36.7c2.9,6.4,5.9,12.8,8.7,19.2l2.1,4.8
	c0.7,1.6,1.5,3.2,2.3,4.7c1.5,3.1,3,6.3,4.6,9.4c4.6,9.2,9.6,18.2,14.8,27.2c0.4,0.7,0.8,1.5,1.3,2.2c1.5,2.5,2.9,4.9,4.4,7.4
	c14.6,23.9,31,46.8,48.7,68.5C674.4,1019.6,705.1,1051,737.8,1080.3z"/>
<path class="st0" d="M1920.5,838v0.6c-12.4,8.7-25.3,16.7-38.6,23.9c-17.9,9.8-36.5,18.5-55.5,26c-19.1,7.5-38.5,13.8-58.2,19.3
	c-5.7,1.5-11.4,3-17.1,4.4c-31.3,7.7-63.2,13.1-95.2,16.8c-0.8,0.1-1.7,0.2-2.5,0.3c-1.9,0.2-3.8,0.4-5.8,0.6
	c-40.7,4.3-81.6,6.1-122.5,6c-40.9,0-81.8-1.8-122.6-4.8c-40.8-2.9-81.5-7.1-122.1-12c-81.2-9.9-162-22.8-242.5-36.7l-30.2-5.3
	c-10.1-1.6-20.1-3.4-30.2-4.6c-20.2-2.7-40.5-4.5-60.9-5.3c-2.5-0.1-5.1-0.3-7.6-0.3l-7.6-0.2c-5.1-0.1-10.2-0.3-15.3-0.2
	c-5.1,0-10.2,0-15.3,0l-15.3,0.4c-20.4,0.7-40.8,2.1-61.1,4c-20.3,2.1-40.5,4.7-60.7,7.9c-20.2,3.2-40.2,7-60.2,11.2
	c-20,4.2-39.8,9-59.6,14.2c-6.7,1.7-13.4,3.5-20.1,5.4c-1,0.2-1.9,0.5-2.9,0.8c-12,3.3-24,6.9-36,10.5
	c-17.2,5.2-34.2,10.8-51.2,16.6c-60.3,20.6-119.5,44.7-177.4,71.2c-30.5,14-60.7,28.6-90.5,44c-6.5,3.3-13,6.7-19.4,10.1
	c-10.8,5.7-21.6,11.6-32.4,17.5h-1c11-6.2,22-12.2,33.1-18.1c6.5-3.5,12.9-6.9,19.4-10.3c29.7-15.5,59.8-30.4,90.3-44.5
	c57.8-26.7,116.8-51,177.1-71.8c17.1-5.9,34.2-11.5,51.5-16.9c11.7-3.6,23.5-7.1,35.4-10.5c1-0.3,1.9-0.5,2.9-0.8
	c26.6-7.5,53.4-14.1,80.4-19.9c20-4.2,40.1-8.1,60.3-11.3c20.2-3.2,40.5-5.9,60.8-8c20.4-2,40.8-3.4,61.2-4.1l15.3-0.4
	c5.1-0.1,10.2,0,15.3-0.1c5.1-0.1,10.2,0.1,15.4,0.2l7.7,0.2c2.6,0,5.1,0.2,7.7,0.3c20.5,0.8,40.9,2.6,61.2,5.2
	c10.2,1.2,20.3,3,30.4,4.6l30.2,5.3c80.5,14,161.2,27,242.3,36.9c81.1,9.9,162.6,16.8,244.3,17.2c40.8,0.1,81.7-1.5,122.3-5.6
	c1.9-0.2,3.8-0.4,5.7-0.6c0.8-0.1,1.7-0.2,2.5-0.3c31.9-3.6,63.7-8.9,94.9-16.4c5.8-1.4,11.5-2.8,17.3-4.4
	c19.7-5.3,39.2-11.5,58.2-18.9c19-7.4,37.6-15.9,55.6-25.6C1894.9,854.6,1907.9,846.6,1920.5,838z"/>
</svg>
