<?xml version="1.0" encoding="UTF-8"?><svg xmlns="http://www.w3.org/2000/svg" xmlns:xlink="http://www.w3.org/1999/xlink" viewBox="0 0 1920 1080"><defs><style>.cls-1{fill:#340c39;}.cls-2{isolation:isolate;}.cls-3{fill:url(#linear-gradient-3);}.cls-3,.cls-4,.cls-5{mix-blend-mode:soft-light;}.cls-6{fill:#440d4c;}.cls-7{fill:#530763;}.cls-4{fill:url(#linear-gradient);}.cls-5{fill:url(#linear-gradient-2);}</style><linearGradient id="linear-gradient" x1="1338.29" y1="1351.25" x2="581.71" y2="-271.25" gradientUnits="userSpaceOnUse"><stop offset="0" stop-color="#231f20"/><stop offset=".51" stop-color="#a19fa0" stop-opacity=".43"/><stop offset="1" stop-color="#fff" stop-opacity="0"/></linearGradient><linearGradient id="linear-gradient-2" x1="0" y1="539.96" x2="1760.75" y2="539.96" gradientUnits="userSpaceOnUse"><stop offset="0" stop-color="#231f20"/><stop offset=".33" stop-color="#3e3b3c" stop-opacity=".87"/><stop offset=".69" stop-color="#908e8f" stop-opacity=".5"/><stop offset="1" stop-color="#fff" stop-opacity="0"/></linearGradient><linearGradient id="linear-gradient-3" x1="0" y1="539.86" x2="1427.71" y2="539.86" gradientUnits="userSpaceOnUse"><stop offset="0" stop-color="#231f20"/><stop offset=".33" stop-color="#433f40" stop-opacity=".85"/><stop offset=".72" stop-color="#9f9d9e" stop-opacity=".43"/><stop offset="1" stop-color="#fff" stop-opacity="0"/></linearGradient></defs><g class="cls-2"><g id="Layer_1"><rect class="cls-1" y="-.05" width="1920" height="1079.99"/><rect class="cls-4" y="0" width="1920" height="1079.99"/><path class="cls-6" d="M311.99,.24s272.13,495.48,967.75,658.76c695.62,163.28,432,420.95,432,420.95H0V-.05L311.99,.24Z"/><path class="cls-5" d="M1711.74,1079.96H0V-.04L311.99,.25s28.83,52.49,91.71,128.93c.61,.74,1.22,1.49,1.85,2.24,34.93,42.29,80.18,91.74,136.62,143.6,54.19,49.81,118.69,101.84,194.28,151.89,140.92,93.32,320.36,179.77,543.29,232.1,178.16,41.82,293.4,89.83,366.26,138.12,.91,.6,1.81,1.2,2.71,1.8h0c56.44,37.96,86.86,76.05,101.23,111.39,.2,.49,.39,.97,.58,1.45,37.13,93.99-38.78,168.19-38.78,168.19Z"/><path class="cls-7" d="M1427.71,0c-24.65,12.26-48.7,24.41-72.17,36.45-.28,.14-.56,.29-.84,.43-72.64,37.28-139.66,73.49-201.43,108.64-.52,.29-1.05,.59-1.57,.9-157.7,89.8-281.16,172.67-376.84,248.8-13.34,10.61-26.14,21.09-38.41,31.44-67.72,57.1-119.54,110.23-158.43,159.48-.34,.44-.69,.88-1.04,1.32-39.96,50.87-66.11,97.57-81.69,140.22-2.31,6.32-4.39,12.55-6.24,18.69-.32,1.02-.62,2.03-.91,3.04-21.87,75.02-10.67,136.67,14.03,185.56,.31,.64,.63,1.27,.97,1.9,35.22,68.3,96.64,111.34,129.73,130.75,13.8,8.1,22.68,12.09,22.68,12.09H0V530.43c50.54-30.96,109.31-57.53,177.63-77.46,59.92-17.47,113.86-37.45,162.38-59.06,5.76-2.56,11.44-5.15,17.05-7.76,74.15-34.49,135.12-72.74,185.11-111.37,60.05-46.4,104.26-93.34,136.43-134.97C740.1,60.22,757.6,0,757.6,0h670.11Z"/><path class="cls-3" d="M655.55,1079.72H0V530.43c50.54-30.96,109.31-57.53,177.63-77.46C667.46,310.11,757.6,0,757.6,0h670.11C-79.19,749.51,655.55,1079.72,655.55,1079.72Z"/></g></g></svg>