<?xml version="1.0" encoding="UTF-8"?><svg id="Layer_1" xmlns="http://www.w3.org/2000/svg" viewBox="0 0 164.61 174.4"><defs><style>.cls-1{fill:#ffba0d;}.cls-2{fill:#f05f3c;}</style></defs><path class="cls-2" d="M164.6,68.8c0,1.2-.1,2.3-.3,3.5h-34.6c0-2.4-2-4.4-4.4-4.4h-.2c-2.4,.1-4.3,2.1-4.3,4.5v62.6c0,21.7-17.6,39.3-39.4,39.3-4.1,0-8.2-.6-12.1-1.9h0c5.5-4.4,8.3-10.3,5.9-17.4-2.6-7.3,.7-12.2,3.6-14.2,1.1-.7,2.4-1.3,3.7-1.6,1.1-.3,2.1-1,2.7-2,.4-.7,.7-1.5,.7-2.3V54.9c0-9.6,7.8-17.5,17.5-17.5h0c.8,0,1.6,.1,2.3,.2,.6,.1,1.2,.2,1.8,.3l.4,.1c.1,.1,.3,.1,.4,.1s.3,.1,.4,.2l.5,.2c.1,0,.3,.1,.4,.1s.2,.1,.3,.1c.3,.1,.7,.3,1,.4l.6,.3,.3,.2c.1,.1,.2,.1,.3,.2,1.5,.9,2.9,2,4.1,3.3h0c13.8-9.8,32.9-6.6,42.7,7.2,3.9,5.4,5.9,11.8,5.7,18.5h0Z"/><path class="cls-2" d="M120.9,54.9c0,9.6-7.8,17.4-17.4,17.4h-26.4v62.7c0,2.4,2,4.4,4.4,4.4,.3,0,.6,0,.8-.1-1.3,.3-2.4,.8-3.5,1.5-2.9,2-6.2,6.8-3.6,14.2,2.5,7.1-.4,12.9-5.9,17.4h0l-.4-.1c-13.4-4.6-23.4-16-26.1-29.9-.5-2.4-.7-4.9-.7-7.4v-62.7H17.4c-9.6,0-17.4-7.8-17.4-17.4s7.8-17.4,17.4-17.4h24.8V17.5C42.2,7.9,50,0,59.7,0s17.5,7.8,17.5,17.5v20h26.3c.7,0,1.5,0,2.2,.1h.1c.6,.1,1.2,.2,1.8,.3h0c.1,0,.2,.1,.3,.1h.1l.3,.1,.2,.1,.3,.1h.1l.4,.1h.1l.2,.1,.2,.1h.1l.2,.1h0c.3,.1,.6,.3,1,.4,.3,.1,.8,.4,1.2,.7,.6,.3,1.1,.7,1.6,1.1h0l.4,.3,.1,.1,.3,.2c.1,.1,.2,.1,.2,.2,.2,.2,.4,.4,.6,.5s.2,.2,.3,.3l.4,.4c3,3.3,4.7,7.5,4.7,12Z"/><path class="cls-1" d="M120.9,54.9c0,9.6-7.8,17.4-17.4,17.4h-26.4v62.7c0,2.4,2,4.4,4.4,4.4,.3,0,.6,0,.8-.1-1.3,.3-2.4,.8-3.5,1.5-2.9,2-6.2,6.8-3.6,14.2,2.5,7.1-.4,12.9-5.9,17.4h0l-.4-.1c-13.4-4.6-23.4-16-26.1-29.9-.5-2.4-.7-4.9-.7-7.4v-62.7H17.4c-9.6,0-17.4-7.8-17.4-17.4s7.8-17.4,17.4-17.4h24.8V17.5C42.2,7.9,50,0,59.7,0s17.5,7.8,17.5,17.5v20h26.3c.7,0,1.5,0,2.2,.1h.1c.6,.1,1.2,.2,1.8,.3h0c.1,0,.2,.1,.3,.1h.1l.3,.1,.2,.1,.3,.1h.1l.4,.1h.1l.2,.1,.2,.1h.1l.2,.1h0c.3,.1,.6,.3,1,.4,.3,.1,.8,.4,1.2,.7,.6,.3,1.1,.7,1.6,1.1h0l.4,.3,.1,.1,.3,.2c.1,.1,.2,.1,.2,.2,.2,.2,.4,.4,.6,.5s.2,.2,.3,.3l.4,.4c3,3.3,4.7,7.5,4.7,12Z"/><path class="cls-2" d="M164.6,68.8c0,1.2-.1,2.3-.3,3.5h-34.6c0-2.4-2-4.4-4.4-4.4h-.2c-2.4,.1-4.3,2.1-4.3,4.5v62.6c0,21.7-17.6,39.3-39.4,39.3-4.1,0-8.2-.6-12.1-1.9h0c5.5-4.4,8.3-10.3,5.9-17.4-2.6-7.3,.7-12.2,3.6-14.2,1.1-.7,2.4-1.3,3.7-1.6,1.1-.3,2.1-1,2.7-2,.4-.7,.7-1.5,.7-2.3V54.9c0-9.6,7.8-17.5,17.5-17.5h0c.8,0,1.6,.1,2.3,.2,.6,.1,1.2,.2,1.8,.3l.4,.1c.1,.1,.3,.1,.4,.1s.3,.1,.4,.2l.5,.2c.1,0,.3,.1,.4,.1s.2,.1,.3,.1c.3,.1,.7,.3,1,.4l.6,.3,.3,.2c.1,.1,.2,.1,.3,.2,1.5,.9,2.9,2,4.1,3.3h0c13.8-9.8,32.9-6.6,42.7,7.2,3.9,5.4,5.9,11.8,5.7,18.5Z"/></svg>