<?xml version="1.0" encoding="UTF-8"?><svg id="Layer_2" xmlns="http://www.w3.org/2000/svg" viewBox="0 0 447.4 179.7"><defs><style>.cls-1{fill:#fff;stroke-width:0px;}</style></defs><g id="Layer_1-2"><path class="cls-1" d="m.1,26.2h11.5v-10.2l15.6-10.7v20.9h13.7v13.9h-13.7v25.2c0,2.4.1,4.7.5,7.1.3,3.2,2.8,5.7,6,6,2.4.3,4.8.5,7.2.5v14.7h-2.2c-4.4.1-8.8-.4-13.1-1.4-3.1-.8-6-2.4-8.3-4.7-2.2-2.4-3.7-5.4-4.4-8.6-1-4.4-1.4-8.9-1.3-13.4v-25.3H0v-14h.1Z"/><path class="cls-1" d="m75.9,93.7c-8.4,0-16.5-3.2-22.7-8.9-3.2-3-5.8-6.6-7.6-10.6-2-4.5-3-9.3-2.9-14.2-.1-4.9.9-9.8,2.8-14.4,3.5-8,10-14.2,18.2-17.2,4-1.5,8.1-2.3,12.4-2.3s8.4.8,12.3,2.4c3.6,1.5,6.7,3.7,9.3,6.6v-8.9h15.6v67.3h-15.5v-9.5c-2.5,3.1-5.7,5.5-9.4,7.1-3.9,1.7-8.2,2.6-12.5,2.6Zm2.5-14.3c2.8,0,5.5-.5,8-1.5,2.4-1,4.5-2.4,6.3-4.2,1.8-1.8,3.2-3.9,4.2-6.3s1.6-5,1.5-7.7c0-2.6-.5-5.2-1.5-7.6-1-2.3-2.4-4.4-4.2-6.2-1.8-1.8-4-3.2-6.3-4.2-5.2-2-10.9-2-16,0-2.4,1-4.6,2.3-6.5,4.1-1.8,1.7-3.3,3.8-4.3,6.2s-1.6,5-1.5,7.7c0,2.7.5,5.3,1.5,7.7s2.5,4.5,4.3,6.3c1.9,1.8,4.1,3.2,6.5,4.2,2.6,1,5.3,1.5,8,1.5Z"/><path class="cls-1" d="m183.4,54.4v125.3h-15.9v-86.1h0v-37.4c0-5.2-1.3-9.2-3.8-12.2s-6.3-4.4-11.4-4.4c-2.1,0-4.2.4-6.1,1.2s-3.6,1.9-5,3.4c-1.5,1.6-2.6,3.5-3.3,5.6-.8,2.5-1.3,5-1.2,7.6v122.2h-15.7V8.4h15.5v27.2c2.3-2.9,5.2-5.3,8.6-6.9,3.6-1.7,7.6-2.6,11.6-2.5,8.4,0,14.9,2.5,19.6,7.5,4.7,4.9,7.1,11.8,7.1,20.7Z"/><path class="cls-1" d="m191.1,26.2h15.4v8.7c2.2-2.7,5-4.9,8.1-6.4,3.5-1.6,7.3-2.4,11.1-2.4,4.6-.1,9.3.9,13.4,3,3.6,1.9,6.5,4.9,8.5,8.4,2.3-3.5,5.5-6.3,9.1-8.3,4-2.1,8.4-3.2,13-3.1,9,0,15.9,2.5,20.5,7.4,4.6,4.9,6.9,11.7,6.9,20.3v39.8h-15.9v-38.4c0-4.8-1.2-8.6-3.7-11.4s-6.1-4.2-10.9-4.2c-4-.1-7.8,1.4-10.6,4.3-2.8,2.9-4.3,7.2-4.3,12.9v36.8h-15.8v-38.8c0-4.7-1.2-8.4-3.6-11.1s-5.9-4-10.6-4c-4.1-.1-8,1.5-10.9,4.4s-4.3,7.3-4.3,13.2v36.4h-15.5V26.2h.1Z"/><path class="cls-1" d="m302.8,9.8c-.1-2.6.8-5.2,2.6-7.1,4.1-3.6,10.2-3.6,14.3,0,1.8,1.9,2.7,4.5,2.6,7.1.1,2.6-.8,5.1-2.6,7-1.9,1.8-4.5,2.8-7.2,2.6-3.1,0-5.6-.9-7.3-2.6-1.6-1.9-2.5-4.4-2.4-7Zm2,16.4h15.7v67.3h-15.7V26.2Z"/><path class="cls-1" d="m359.2,93.7c-8.4,0-16.5-3.2-22.7-8.9-3.2-3-5.8-6.6-7.6-10.6-2-4.5-3-9.3-2.9-14.2-.1-4.9.9-9.8,2.8-14.4,3.5-8,10-14.2,18.2-17.2,4-1.5,8.1-2.3,12.4-2.3s8.4.8,12.2,2.5c3.6,1.5,6.8,3.9,9.3,6.9V8.5h15.7v85.1h-15.5v-9.6c-2.5,3.1-5.8,5.5-9.4,7.1-4,1.7-8.2,2.6-12.5,2.6Zm2.6-14.3c2.8,0,5.5-.5,8.1-1.5,2.4-1,4.5-2.4,6.3-4.2,1.8-1.8,3.2-3.9,4.2-6.3s1.6-5,1.5-7.7c0-2.6-.5-5.2-1.5-7.6-1-2.3-2.4-4.4-4.2-6.2s-4-3.2-6.3-4.2c-7.7-3.1-16.5-1.5-22.6,4.1-1.9,1.7-3.3,3.8-4.4,6.2-1,2.4-1.6,5-1.5,7.7,0,2.7.5,5.3,1.5,7.7s2.5,4.5,4.3,6.3c1.9,1.8,4.1,3.2,6.5,4.2,2.6,1,5.3,1.5,8.1,1.5h0Z"/><path class="cls-1" d="m2.5,112.2h15.4v10c3.1-6.7,8.9-10,17.3-10,2.2,0,4.5.2,6.6.8,1.8.5,3.6,1.2,5.2,2.1l-5.9,14.7c-1.2-.8-2.5-1.4-3.9-1.9-1.8-.6-3.6-.8-5.5-.8-4.5,0-8,1.3-10.3,3.8-2.3,2.6-3.5,6.8-3.5,12.6v35.9H2.4v-67.2h.1Z"/><path class="cls-1" d="m79.6,179.7c-8.4,0-16.5-3.2-22.7-8.9-3.2-3-5.8-6.6-7.6-10.6-2-4.5-3-9.3-2.9-14.3-.1-4.9.9-9.8,2.8-14.4,3.5-8,10-14.2,18.2-17.2,4-1.5,8.1-2.3,12.4-2.3s8.4.8,12.3,2.4c3.6,1.5,6.7,3.7,9.3,6.6v-8.9h15.5v67.3h-15.5v-9.4c-2.5,3.1-5.8,5.5-9.4,7.1-3.9,1.7-8.1,2.6-12.4,2.6Zm2.5-14.3c2.8,0,5.5-.5,8-1.5,2.4-1,4.5-2.4,6.3-4.2s3.2-3.9,4.2-6.3c1-2.4,1.6-5,1.6-7.7s-.5-5.2-1.6-7.6c-1-2.3-2.4-4.4-4.2-6.2-1.8-1.8-4-3.2-6.3-4.2-7.7-3.1-16.5-1.5-22.5,4.1-1.8,1.7-3.3,3.8-4.3,6.2s-1.6,5-1.5,7.7c0,2.7.5,5.3,1.5,7.7s2.5,4.5,4.3,6.3c1.9,1.8,4.1,3.2,6.5,4.2,2.6,1,5.3,1.5,8,1.5Z"/><path class="cls-1" d="m194.8,112.2h15.4v8.7c2.2-2.7,5-4.9,8.1-6.4,3.5-1.6,7.3-2.4,11.1-2.4,4.7-.1,9.3.9,13.4,3,3.6,1.9,6.5,4.9,8.5,8.4,2.3-3.5,5.5-6.3,9.1-8.3,4-2.1,8.4-3.2,13-3.1,9.1,0,15.9,2.5,20.5,7.4s6.9,11.7,6.9,20.3v39.8h-15.9v-38.3c0-4.8-1.2-8.6-3.7-11.4-2.5-2.8-6.1-4.2-10.9-4.2-4-.1-7.8,1.4-10.6,4.3-2.9,2.8-4.3,7.2-4.3,12.9v36.8h-15.7v-38.8c0-4.7-1.2-8.4-3.6-11.1s-5.9-4.1-10.6-4.1c-4.1-.1-8,1.5-10.9,4.4-2.9,2.9-4.3,7.3-4.3,13.2v36.4h-15.5v-67.5Z"/><path class="cls-1" d="m339.4,179.7c-8.4,0-16.5-3.2-22.7-8.9-3.2-3-5.8-6.6-7.6-10.6-2-4.5-3-9.3-2.9-14.3-.1-4.9.9-9.8,2.8-14.4,3.5-8,10-14.2,18.2-17.2,4-1.5,8.1-2.3,12.4-2.3s8.4.8,12.3,2.4c3.6,1.5,6.8,3.7,9.3,6.6v-8.9h15.5v67.3h-15.4v-9.4c-2.5,3.1-5.8,5.5-9.4,7.1-4,1.7-8.2,2.6-12.5,2.6Zm2.5-14.3c2.8,0,5.5-.5,8.1-1.5,2.4-1,4.5-2.4,6.3-4.2s3.2-3.9,4.2-6.3c1-2.4,1.6-5,1.5-7.7,0-2.6-.5-5.2-1.5-7.6-1-2.3-2.4-4.4-4.2-6.2s-4-3.2-6.3-4.2c-7.7-3.1-16.5-1.5-22.6,4.1-1.8,1.7-3.3,3.8-4.3,6.2s-1.6,5-1.5,7.7c0,2.7.5,5.3,1.5,7.7s2.5,4.5,4.3,6.3c1.9,1.8,4.1,3.2,6.5,4.2,2.6,1,5.3,1.5,8,1.5h0Z"/><path class="cls-1" d="m385.1,112.2h15.4v9.2c2.3-2.8,5.2-5.2,8.5-6.8,3.6-1.7,7.6-2.6,11.7-2.6,8.4,0,14.9,2.5,19.6,7.5,4.7,5,7.1,11.9,7.1,20.8v39.2h-15.8v-37.4c0-5.1-1.3-9.1-3.8-12.1s-6.3-4.4-11.4-4.4c-4.2-.1-8.3,1.6-11.2,4.6-3,3.1-4.6,7.5-4.5,13.3v36.1h-15.5v-67.4h-.1Z"/></g></svg>